<?xml version="1.0" encoding="utf-8"?>
<!-- Generator: Adobe Illustrator 16.0.0, SVG Export Plug-In . SVG Version: 6.00 Build 0)  -->
<!DOCTYPE svg PUBLIC "-//W3C//DTD SVG 1.1//EN" "http://www.w3.org/Graphics/SVG/1.1/DTD/svg11.dtd">
<svg version="1.1" id="Calque_1" xmlns="http://www.w3.org/2000/svg" xmlns:xlink="http://www.w3.org/1999/xlink" x="0px" y="0px"
	 width="432px" height="432px" viewBox="0 0 432 432" enable-background="new 0 0 432 432" xml:space="preserve">
<g>
	<g>
		<path fill="#C69C6D" d="M95.3,291.456c-0.929-0.094-1.183,1.25-1.042,2.174c0.825,5.449,2.434,10.779,4.755,15.778
			c-2.813-2.096-5.625-4.192-8.438-6.288c-1.177-0.877-3.771-4.041-3.702-2.369c1.013,2.678,2.188,5.293,3.515,7.831
			c-6.208-4.119-12.306-7.352-12.481-5.263c2.26,3.727,5.01,7.156,8.156,10.172c1.57,1.505,3.252,2.925,4.864,4.4
			c-3.966-0.873-8.324-0.835-12.195-2.186c-0.819-0.286-1.951-0.527-2.367,0.235c-0.384,0.704,0.296,1.504,0.933,1.993
			c2.375,1.821,5.037,3.231,7.508,4.92c0.608,0.415,1.208,0.852,1.787,1.314c-4.289-0.365-8.623-0.184-12.865,0.544
			c-1.318,0.227-2.89,0.756-3.135,2.071c4.558,1.378,9.116,2.756,13.674,4.135c3.407,1.03,6.829,2.066,10.05,3.581
			c2.724,1.281,5.285,2.896,8.056,4.069c1.862,0.788,3.864,1.369,5.87,1.476c0.565,1.211,1.771,2.188,3.065,2.652
			c1.889,0.677,3.952,0.562,5.956,0.653c9.12,0.415,17.393,5.191,25.251,9.839c-2.035-4.437-6.929-6.644-10.747-9.684
			c-2.355-1.875-4.379-4.166-5.949-6.734c-1.497-2.45-2.604-5.173-4.529-7.303c-1.083-1.198-2.54-2.176-4.079-2.61
			c-0.846-3.466-2.256-6.793-4.166-9.806c-3.432-5.41-8.398-9.741-11.638-15.269c-1.826-3.117-3.073-6.565-5.118-9.542
			C96.041,291.882,95.732,291.5,95.3,291.456z"/>
	</g>
	<path fill="#361B09" d="M121.288,329.466c-1.083-1.198-2.54-2.176-4.079-2.61c0.152,0.626,0.289,1.257,0.404,1.892
		c0.379,2.083,0.545,4.282-0.174,6.273c-0.719,1.991-4.18,4.145-6.271,4.807c-0.966,0.208-1.946,0.267-2.927,0.215
		c0.565,1.211,1.771,2.188,3.065,2.652c1.889,0.677,3.952,0.562,5.956,0.653c9.12,0.415,17.393,5.191,25.251,9.839
		c-2.035-4.437-6.929-6.644-10.747-9.684c-2.355-1.875-4.379-4.166-5.949-6.734C124.32,334.32,123.213,331.596,121.288,329.466z"/>
	<g>
		<path fill="#A67C52" d="M95.3,291.456c-0.929-0.094-1.183,1.25-1.042,2.174c0.825,5.449,2.434,10.779,4.755,15.778
			c0.069,0.148,0.137,0.297,0.206,0.445c0.953,2.006,2.05,4.208,1.444,6.344c-2.549-2.177-6.434-5.065-10.275-7.614
			c-6.208-4.119-12.306-7.352-12.481-5.263c2.26,3.727,5.01,7.156,8.156,10.172c1.57,1.505,3.252,2.925,4.864,4.4
			c2.208,2.018,4.287,4.139,5.77,6.72c-2.347,0.734-4.873,0.217-7.308-0.128c-0.929-0.132-1.862-0.236-2.797-0.316
			c-4.289-0.365-8.623-0.184-12.865,0.544c-1.318,0.227-2.89,0.756-3.135,2.071c4.558,1.378,9.116,2.756,13.674,4.135
			c3.407,1.03,6.829,2.066,10.05,3.581c2.724,1.281,5.285,2.896,8.056,4.069c1.862,0.788,3.864,1.369,5.87,1.476
			c0.98,0.052,1.961-0.008,2.927-0.215c2.092-0.662,5.553-2.816,6.271-4.807c0.719-1.991,0.553-4.19,0.174-6.273
			c-0.115-0.635-0.252-1.266-0.404-1.892c-0.846-3.466-2.256-6.793-4.166-9.806c-3.432-5.41-8.398-9.741-11.638-15.269
			c-1.826-3.117-3.073-6.565-5.118-9.542C96.041,291.882,95.732,291.5,95.3,291.456z"/>
	</g>
</g>
<g>
	<g opacity="0.52">
		<path fill="#957552" d="M310.311,171.8c5.316,8.715,16.628,12.609,26.699,10.94s18.861-8.085,25.393-15.932
			c6.531-7.846,11.096-17.104,15.598-26.267c-11.748-2.246-23.824-2.767-35.722-1.541c-4.547,0.468-9.116,1.204-13.341,2.946
			c-10.727,4.422-18.656,17.903-18.639,29.505L310.311,171.8z"/>
	</g>
	<g opacity="0.52">
		<path fill="#957552" d="M290.942,185.957c-1.045,6.852,1.584,17.99,6.543,22.833c4.958,4.842,11.436,7.818,17.979,10.102
			c4.999,1.745,10.121,3.141,15.314,4.175c0.738-3.144,0.519-6.429,0.172-9.64c-1.039-9.611-3.566-19.78-10.813-26.179
			C312.805,180.771,299.326,180.912,290.942,185.957z"/>
	</g>
	<g opacity="0.52">
		<path fill="#957552" d="M294.028,135.724c3.08,7.684,6.204,15.567,6.44,23.842c0.236,8.274-7.1,18.283-14.194,22.547l-0.583,0.067
			c-4.453-3.628-7.241-8.904-9.36-14.244c-1.333-3.359-2.462-6.865-2.555-10.478c-0.144-5.518,2.228-10.975,6.063-14.946
			c3.835-3.971,9.045-6.493,14.477-7.476"/>
	</g>
	<path fill="#6B4624" d="M332.563,162.005c0.013,0.001,0.023,0.004,0.037,0.004c0.003,0,0.006,0,0.009,0
		c0.025,0.002,0.051,0.002,0.077,0c8.599,0.001,17.096,2.598,25.693,1.172c0.653-0.108,0.4-1.107-0.251-0.999
		c-7.842,1.3-15.639-0.826-23.479-1.159c4.332-2.031,8.679-4.031,13.042-5.993c0.512-0.23,1.024-0.456,1.536-0.685
		c0.018-0.001,0.035-0.002,0.053-0.005c0.004,0,0.007,0,0.011,0c5.253-0.802,10.626,0.985,15.77-0.755
		c0.623-0.21,0.379-1.212-0.251-0.999c-4.166,1.41-8.53,0.493-12.839,0.537c5.744-2.546,11.513-5.036,17.308-7.465
		c0.609-0.256,0.106-1.155-0.5-0.901c-6.089,2.553-12.148,5.173-18.181,7.857c2.576-3.65,5.898-6.691,9.423-9.43
		c0.523-0.407-0.191-1.148-0.711-0.745c-4.012,3.117-7.752,6.636-10.472,10.958c-4.981,2.229-9.942,4.502-14.884,6.82
		c4.108-6.711,10.057-12.182,16.305-16.879c0.529-0.398-0.188-1.139-0.711-0.745c-6.719,5.05-13.088,11.008-17.242,18.399
		c-4.797,2.261-9.573,4.564-14.33,6.909c5.228-6.677,8.611-14.796,15.188-20.351c0.507-0.428-0.207-1.171-0.712-0.744
		c-7.211,6.09-10.565,15.231-16.726,22.207c-7.563,3.754-15.073,7.612-22.527,11.577c-2.675,1.422-5.34,2.863-8,4.312
		c1.499-2.583,2.507-5.416,3.095-8.346c0.191,0.095,0.42,0.077,0.56-0.133c0.045-0.05,0.08-0.111,0.099-0.185
		c2.433-5.065,6.255-9.414,8.011-14.808c0.205-0.631-0.782-0.926-0.987-0.296c-1.594,4.898-4.942,8.926-7.33,13.438
		c-0.005-0.014-0.011-0.028-0.017-0.042c0.299-2.204,0.383-4.439,0.276-6.642c-0.157-3.226-0.56-6.49-0.671-9.72
		c2.77-1.63,4.458-4.676,5.794-7.496c0.28-0.594-0.594-1.138-0.878-0.54c-1.179,2.489-2.62,5.227-4.942,6.832
		c-0.037-3.839,0.433-7.617,2.321-11.209c0.308-0.585-0.568-1.127-0.877-0.541c-1.541,2.931-2.215,6.045-2.431,9.226
		c-0.797-2.076-1.415-4.221-1.694-6.43c-0.084-0.655-1.082-0.4-1,0.251c0.382,3.005,1.391,5.89,2.607,8.651
		c0.002,0.003,0.004,0.005,0.005,0.008c-0.004,2.921,0.286,5.872,0.567,8.766c0.229,2.345,0.264,4.731,0.063,7.09
		c-0.021-0.043-0.043-0.086-0.064-0.129c-0.822-1.685-1.698-3.34-2.549-5.01c-1.773-3.481-3.391-7.068-3.791-10.997
		c-0.065-0.65-1.096-0.682-1.029-0.023c0.338,3.319,1.445,6.402,2.87,9.401c0.763,1.604,1.597,3.173,2.408,4.753
		c0.528,1.03,1.457,2.401,1.967,3.708c-0.556,4.07-1.876,8.003-4.241,11.434c-3.604,1.975-7.195,3.972-10.773,5.993
		c-0.577,0.326-0.08,1.229,0.499,0.901c3.543-2.002,7.101-3.978,10.67-5.932c0.108-0.016,0.212-0.068,0.299-0.164
		c0.367-0.201,0.735-0.402,1.103-0.603c0.02-0.004,0.037-0.007,0.057-0.014c3.241-1.124,6.477-0.498,9.545,0.684
		c0.008,0.006,0.014,0.014,0.023,0.021c1.579,1.173,2.227,3.503,2.862,5.266c0.659,1.829,1.245,3.684,1.892,5.517
		c1.189,3.37,2.612,6.625,4.887,9.414c0.42,0.514,1.162-0.2,0.745-0.711c-2.759-3.381-4.155-7.502-5.529-11.582
		c-0.716-2.123-1.353-4.922-2.691-6.99c0.357,0.166,0.712,0.333,1.063,0.505c3.85,1.879,7.411,4.345,10.621,7.175
		c0.417,0.368,0.828,0.742,1.233,1.122c0.569,1.446,0.685,2.986,0.977,4.5c0.278,1.44,0.728,2.85,1.217,4.231
		c1.009,2.849,2.324,5.563,3.898,8.142c0.344,0.564,1.247,0.069,0.9-0.499c-1.741-2.854-3.17-5.871-4.192-9.058
		c-0.609-1.894-0.813-3.906-1.281-5.833c5.38,5.423,9.672,11.838,13.395,18.497c0.323,0.578,1.225,0.081,0.9-0.5
		c-3.881-6.943-8.396-13.642-14.078-19.229c3.911,0.331,7.739,1.147,11.046,3.405c0.549,0.375,1.086-0.504,0.54-0.877
		c-3.783-2.583-8.262-3.368-12.752-3.644c-0.771-0.718-1.562-1.419-2.378-2.094c-2.981-2.466-6.222-4.611-9.702-6.301
		c4.971,0.301,9.827,1.499,14.65,2.736c0.641,0.165,0.938-0.821,0.296-0.986c-5.708-1.465-11.47-2.877-17.399-2.853
		c-0.2-0.083-0.4-0.163-0.602-0.241c-0.071-0.048-0.141-0.073-0.208-0.081c-2.259-0.865-4.583-1.457-6.947-1.342
		c9.316-5.037,18.72-9.912,28.206-14.622c10.623,1.477,21.134,5.22,31.959,3.361c0.653-0.112,0.4-1.11-0.25-0.999
		c-10.163,1.745-20.132-1.567-30.108-3.155C322.787,166.674,327.664,164.317,332.563,162.005z"/>
</g>
<g>
	<g>
		<path fill="#854D1A" d="M234.521,126.343c-11.954,1.544-24.539-5.031-30.101-15.725c-1.213-2.333-2.116-5.116-1.132-7.555
			c0.938-2.32,3.443-3.738,5.937-3.951c2.493-0.212,4.967,0.596,7.229,1.666c9.181,4.341,16.677,15.473,18.273,25.501
			L234.521,126.343z"/>
	</g>
	<g>
		<path fill="#854D1A" d="M237.73,136.388c1.793,7.564,5.898,16.879,12.654,20.723c2.471,1.405,5.264,2.455,8.098,2.238
			s5.682-1.943,6.561-4.646c0.974-2.99-0.606-6.208-2.54-8.688c-5.208-6.678-16.126-11.117-24.552-9.691L237.73,136.388z"/>
	</g>
	<g>
		<path fill="#854D1A" d="M223.064,146.483c-4.503,0.03-9.06-0.192-13.382-1.455s-8.431-3.651-11.084-7.29
			c-1.386-1.901-2.363-4.183-2.321-6.536s1.237-4.754,3.317-5.854c1.873-0.991,4.153-0.827,6.202-0.283
			c4.559,1.212,8.545,4.17,11.453,7.885c2.907,3.714,4.672,8.729,5.849,13.297L223.064,146.483z"/>
	</g>
	<g>
		<path fill="#854D1A" d="M228.402,151.118c-0.616,6.657,2.338,15.894,6.771,20.898c1.349,1.523,2.85,2.995,4.73,3.773
			c1.879,0.779,4.222,0.731,5.77-0.589c2.256-1.923,1.94-5.504,0.919-8.287c-2.641-7.189-10.779-14.122-18.136-16.252
			L228.402,151.118z"/>
	</g>
	<g>
		<path fill="#854D1A" d="M247.875,122.859c1.426,4.839,4.509,7.333,8.707,10.131c4.197,2.798,9.211,4.258,14.246,4.559
			c2.788,0.167,5.686-0.034,8.179-1.292s4.505-3.753,4.545-6.546c0.05-3.462-2.792-6.3-5.808-8
			c-7.979-4.498-21.636-4.463-29.696,1.044L247.875,122.859z"/>
	</g>
	<g>
		<path fill="#854D1A" d="M242.784,114.28c-3.901-3.884-7.507-8.194-9.701-13.243c-2.195-5.049-2.862-10.939-0.882-16.076
			c1.113-2.891,3.36-5.66,6.428-6.09c1.441-0.203,2.918,0.138,4.249,0.728c5.68,2.518,8.491,9.277,8.252,15.485
			C250.89,101.292,246.83,108.894,242.784,114.28"/>
	</g>
	<g>
		<path fill="#854D1A" d="M256.867,110.188c7.661,0.938,15.253-0.911,22.443-4.688c2.824-1.484,6.832-4.634,8.563-7.315
			c1.729-2.681,1.952-6.593-0.314-8.838c-2.057-2.038-5.352-2.081-8.199-1.553c-11.086,2.056-20.478,11.319-22.687,22.375
			L256.867,110.188z"/>
	</g>
	<path fill="#603813" d="M278.982,92.813c-5.953,4.093-11.859,8.256-17.797,12.372c-5.691,3.945-11.314,8.018-16.465,12.66
		c-0.006,0.006-0.013,0.011-0.019,0.017c-2.208-8.341-3.228-17.044-2.353-25.65c0.133-1.31-1.893-1.689-2.027-0.366
		c-0.942,9.282,0.205,18.625,2.681,27.59c-2.447,2.325-4.755,4.796-6.843,7.44c-0.929-2.824-3.856-5.43-5.602-7.328
		c-3.961-4.306-8.298-8.245-12.898-11.855c-1.039-0.816-2.384,0.745-1.338,1.565c3.747,2.941,7.319,6.096,10.657,9.497
		c1.753,1.785,3.438,3.636,5.04,5.557c1.131,1.357,2.919,3.233,2.222,5.138c-0.848,1.206-1.652,2.443-2.399,3.72
		c-2.759,4.712-4.507,9.841-6.099,15.027c-3.995-5.888-9.286-10.635-15.29-14.485c-1.111-0.712-1.979,1.158-0.875,1.865
		c6.163,3.952,11.502,8.971,15.384,15.195c-0.132,0.439-0.264,0.877-0.396,1.316c-2.298,7.613-4.991,15.346-10.723,21.104
		c-0.936,0.939,0.635,2.273,1.565,1.338c6.371-6.4,8.927-14.765,11.47-23.15c1.063-0.42,2.831,1.184,3.477,1.757
		c1.197,1.062,2.271,2.255,3.224,3.541c1.8,2.43,3.084,5.125,3.926,8.023c0.371,1.277,2.314,0.593,1.946-0.676
		c-1.14-3.924-3.114-7.522-5.858-10.555c-1.249-1.38-3.75-3.985-6.064-4.218c1.178-3.839,2.419-7.647,4.094-11.237
		c0.347-0.746,0.715-1.477,1.099-2.197c7.581,1.962,14.366,6.308,19.295,12.408c0.827,1.025,2.54-0.122,1.706-1.153
		c-5.147-6.372-12.09-10.928-19.96-13.104c0.62-1.048,1.274-2.069,1.964-3.065c0.127-0.094,0.237-0.222,0.318-0.402
		c0.017-0.039,0.03-0.079,0.047-0.118c2.342-3.298,5.045-6.324,7.977-9.141c7.777,6.592,17.529,9.521,27.624,10.021
		c1.322,0.065,1.148-1.989-0.16-2.054c-9.465-0.469-18.634-3.275-25.949-9.385c4.655-4.261,9.791-8.056,14.891-11.633
		c6.535-4.583,13.087-9.151,19.665-13.673C281.23,93.769,280.076,92.063,278.982,92.813z"/>
</g>
<g>
	<g>
		<path fill="#C96D00" d="M147.11,132.232c-6.569-0.857-12.935-5.62-15.837-11.576c1.044-0.285,2.087-0.57,3.13-0.855
			c-1.505-2.385-2.749-4.933-3.705-7.586c1.006-0.588,2.207-0.837,3.364-0.698c-0.094-1.433-0.188-2.866-0.282-4.299
			c-0.032-0.489-0.032-1.058,0.346-1.371c0.33-0.274,0.821-0.235,1.199-0.438c0.489-0.262,0.681-0.855,0.816-1.394
			c0.788-3.123,1.19-6.343,1.194-9.564c3.041,2.441,5.557,5.533,7.328,9.007c0.258,0.506,0.525,1.049,1.011,1.345
			c0.486,0.296,1.259,0.191,1.448-0.345c0.194-0.553,0.259-1.618,0.707-1.24c0.338,1.338,0.676,2.676,1.014,4.014
			c0.732-0.161,1.396-0.619,1.806-1.248c2.915,3.718,3.473,8.88,2.458,13.494C152.094,124.092,149.682,128.269,147.11,132.232z"/>
	</g>
	<g>
		<path fill="#C96D00" d="M152.997,138.511c0.7,6.725,3.11,13.265,6.943,18.835c0.343-1.209,0.811-2.384,1.394-3.498
			c1.587,2.236,3.174,4.472,4.76,6.708c0.472-0.977,0.942-1.954,1.413-2.931c0.177-0.366,0.436-0.787,0.842-0.787
			c0.272,0,0.499,0.198,0.698,0.384c1.919,1.795,3.837,3.591,5.756,5.386c0.313-1.892,0.915-3.736,1.78-5.447
			c1.785,1.868,3.822,3.495,6.038,4.823c-0.046-1.381-0.091-2.762-0.137-4.143c4.993,0.151,9.963,1.055,14.688,2.673
			c-1.765-3.811-4.24-7.291-7.263-10.206c1.126-0.516,2.253-1.033,3.379-1.549c-2.785-1.607-5.77-2.871-8.863-3.752
			c0.97-1.219,2.119-2.294,3.399-3.18c-3.592-0.847-7.288-1.251-10.979-1.199c-0.235-1.299,2.41-1.995,1.85-3.19
			c-0.238-0.506-0.91-0.591-1.47-0.602c-7.973-0.155-15.96,0.41-23.831,1.685L152.997,138.511z"/>
	</g>
	<g>
		<path fill="#C96D00" d="M156.239,132.19c-0.032-4.213,0.721-8.431,2.21-12.372c0.3-0.792,1.354-1.667,1.786-0.938
			c-0.298-2.697,0.16-5.474,1.308-7.934c0.84,1.129,2.709,0.87,3.73-0.097c1.022-0.967,1.461-2.376,2.021-3.667
			s1.402-2.621,2.754-3.011c0.331,0.962,0.861,1.856,1.548,2.608c1.354-1.847,2.707-3.693,4.062-5.541
			c0.395-0.538,0.962-1.143,1.607-0.97c0.471,0.126,0.753,0.634,1.213,0.798c0.544,0.194,1.119-0.147,1.595-0.473
			c3.547-2.424,7.093-4.849,10.639-7.273c0.437,4.266-0.12,8.631-1.611,12.651c0.985,0.071,1.986-0.083,2.905-0.447
			c-0.529,3.65-2.693,7.031-5.785,9.041c-0.38,0.247-0.791,0.493-1,0.896c-0.375,0.723,0.104,1.653,0.812,2.057
			c0.709,0.403,1.564,0.419,2.379,0.425c-0.381,3.497-4.244,5.332-7.56,6.51c1.409,1.322,2.818,2.645,4.227,3.967
			c-4.501,2.927-10.278,3.81-15.448,2.359c0.892,0.954,1.782,1.908,2.674,2.862c-4.771,1.486-11.244,0.528-15.975-1.08
			L156.239,132.19z"/>
	</g>
	<path fill="#603813" d="M169.002,147.864c2.912,1.379,5.965,2.355,9.084,3.125c0.851,1.539,1.974,3.012,3.378,4.073
		c0.528,0.399,1.042-0.494,0.52-0.889c-0.999-0.755-1.83-1.777-2.511-2.855c2.282,0.519,4.594,0.947,6.906,1.358
		c0.647,0.115,0.926-0.877,0.273-0.993c-2.294-0.408-4.559-0.84-6.786-1.358c1.534-0.744,3.198-1.122,4.9-1.388
		c0.653-0.102,0.376-1.095-0.273-0.993c-2.148,0.336-4.254,0.867-6.11,2.021c-3.049-0.773-6.019-1.744-8.884-3.073
		c2.647-0.676,5.351-0.927,8.096-0.991c0.662-0.016,0.665-1.045,0-1.03c-3.22,0.075-6.4,0.4-9.487,1.341
		c-1.01-0.518-2.007-1.079-2.986-1.704c-1.937-1.234-3.814-2.596-5.764-3.826c3.61-0.956,7.31-0.541,10.906,0.497
		c0.638,0.184,0.91-0.809,0.273-0.993c-4.064-1.173-8.302-1.577-12.364-0.226c-0.763-0.448-1.54-0.871-2.341-1.251
		c-2.271-1.078-4.66-1.787-7.124-2.094c5.456-1.79,10.603-4.506,15.159-8.064c4.125,0.828,8.433,0.484,12.489-0.549
		c0.642-0.164,0.37-1.157-0.273-0.993c-3.615,0.921-7.455,1.287-11.156,0.691c2.54-2.112,4.83-4.49,6.994-6.983
		c3.11,0.207,6.153-0.161,9.08-1.268c0.614-0.232,0.348-1.228-0.273-0.993c-2.581,0.976-5.235,1.36-7.961,1.274
		c1.109-1.311,2.191-2.646,3.261-3.986c0.736-0.923,1.462-1.855,2.182-2.792c2.621,0.021,5.161-0.521,7.527-1.668
		c0.597-0.289,0.075-1.177-0.52-0.889c-1.965,0.952-4.055,1.436-6.212,1.518c2.708-3.573,5.296-7.236,7.762-10.981
		c0.365-0.555-0.526-1.071-0.89-0.52c-2.285,3.472-4.676,6.873-7.171,10.197c0.281-1.736,0.604-3.462,1.194-5.128
		c0.221-0.626-0.773-0.895-0.993-0.274c-0.803,2.268-1.111,4.646-1.494,7.009c-0.006,0.036-0.007,0.07-0.007,0.103
		c-0.694,0.904-1.396,1.805-2.107,2.697c-1.014,1.271-2.041,2.538-3.091,3.786c0.043-2.942,0.517-5.847,1.396-8.666
		c0.198-0.634-0.796-0.905-0.993-0.273c-1.023,3.284-1.512,6.701-1.425,10.14c-2.164,2.497-4.453,4.882-7.002,6.986
		c-0.226-4.333-0.33-8.813,1.734-12.754c0.307-0.586-0.582-1.107-0.89-0.52c-2.283,4.36-2.088,9.289-1.833,14.066
		c-4.809,3.756-10.313,6.554-16.143,8.282c0.691-1.588,0.642-3.283,0.44-5.092c-0.19-1.709-0.434-3.414-0.714-5.112
		c1.857-3.366,3.212-6.937,3.861-10.735c0.111-0.648-0.881-0.927-0.992-0.274c-0.563,3.289-1.65,6.397-3.152,9.353
		c-0.1-0.551-0.2-1.102-0.308-1.651c-0.309-1.584-0.654-3.161-1.029-4.731c1.156-1.536,1.865-3.294,1.89-5.238
		c0.009-0.663-1.021-0.663-1.029,0c-0.019,1.411-0.449,2.739-1.185,3.917c-0.413-1.638-0.858-3.268-1.341-4.886
		c0.586-1.221,1.005-2.483,1.17-3.835c0.079-0.656-0.951-0.651-1.03,0c-0.098,0.804-0.313,1.582-0.603,2.333
		c-0.497-1.586-1.024-3.164-1.588-4.728c-0.224-0.619-1.219-0.352-0.993,0.274c0.615,1.706,1.187,3.425,1.722,5.157
		c-1.474-0.423-2.888-1.027-4.139-1.932c-0.538-0.389-1.053,0.504-0.52,0.889c1.49,1.079,3.232,1.759,5.01,2.204
		c0.512,1.72,0.987,3.45,1.419,5.192c-2.2,0.069-4.321-0.707-5.952-2.224c-0.484-0.451-1.214,0.275-0.728,0.728
		c1.874,1.744,4.372,2.671,6.924,2.514c0.221,0.927,0.435,1.855,0.632,2.788c0.303,1.425,0.575,2.856,0.822,4.292
		c-2.909-0.013-5.583-1.283-7.813-3.126c-0.507-0.419-1.239,0.306-0.728,0.729c2.478,2.048,5.462,3.472,8.714,3.424
		c0.128,0.793,0.251,1.586,0.36,2.382c0.359,2.604,0.98,5.447-0.506,7.781c-3.472,0.921-7.046,1.466-10.646,1.611
		c-0.66,0.026-0.663,1.057,0,1.03c3.666-0.147,7.296-0.707,10.823-1.637c0.035,0.007,0.073,0.011,0.113,0.011
		c3.882,0.005,7.594,1.068,10.971,2.968c0.241,0.136,0.479,0.28,0.718,0.421c1.125,3.842,2.636,7.577,5.062,10.792
		c0.395,0.522,1.289,0.01,0.89-0.52c-2.146-2.846-3.563-6.089-4.629-9.464c2.415,1.531,4.727,3.23,7.185,4.691
		c0.46,0.273,0.926,0.53,1.395,0.779c1.06,2.458,2.367,4.85,4.2,6.82c0.452,0.487,1.179-0.243,0.729-0.728
		C171.018,151.659,169.918,149.798,169.002,147.864z"/>
</g>
<g>
	<g>
		<path fill="#A67C52" d="M85.958,186.264c-0.394-3.095-3.37-5.096-6.059-6.679c-3.432-2.021-6.864-4.043-10.296-6.064
			c-1.399-0.824-2.846-1.691-3.757-3.036c-0.911-1.345-1.12-3.313-0.033-4.52c1.57-1.743,4.903-1.12,6.138-3.115
			c1.237-1.999-0.815-4.376-2.668-5.824c-2.773-2.167-5.548-4.333-8.32-6.5c-2.359-1.843-4.99-4.445-4.179-7.326
			c0.134-0.476,0.386-0.951,0.818-1.192c0.376-0.21,0.83-0.213,1.261-0.198c2.35,0.083,5.039,0.434,6.744-1.186
			c1.954-1.858,1.31-5.181-0.16-7.442c-1.469-2.261-3.609-4.126-4.54-6.657c-0.93-2.531,0.181-6.137,2.867-6.375
			c1.034-0.092,2.036,0.341,3.063,0.503c2.194,0.347,4.585-0.705,5.684-2.635c1.868-3.281-0.239-7.273-1.751-10.732
			c-0.518-1.183-0.973-2.447-0.861-3.733c0.111-1.287,0.938-2.593,2.197-2.875c0.941-0.211,1.922,0.167,2.881,0.072
			c2.675-0.267,3.58-3.617,4.152-6.244c0.492-2.258,1.25-4.528,2.75-6.286c1.501-1.758,3.875-2.913,6.138-2.445
			c3.938,0.813,5.463,5.709,5.244,9.725c-0.101,1.851-0.407,3.724-0.049,5.542s1.591,3.629,3.413,3.967
			c3.073,0.57,6.004-3.16,8.908-2.003c2.295,0.914,2.501,4.06,2.13,6.502c-0.593,3.901-1.675,7.727-3.213,11.36
			c-0.365,0.862-0.765,1.8-0.522,2.705c0.486,1.82,3.033,2.047,4.814,1.429c1.78-0.617,3.621-1.699,5.42-1.137
			c2.698,0.843,3.008,4.764,1.563,7.194c-1.443,2.43-3.944,4.053-5.583,6.356c-1.639,2.303-2.026,6.06,0.383,7.538
			c1.639,1.005,3.73,0.467,5.63,0.171c1.899-0.295,4.277-0.063,5.095,1.676c0.347,0.737,0.317,1.592,0.215,2.4
			c-0.517,4.11-2.816,7.965-6.187,10.374c-1.585,1.133-3.675,2.775-2.817,4.524c0.426,0.868,1.435,1.251,2.152,1.897
			c1.195,1.076,1.518,2.895,1.104,4.449c-0.414,1.554-1.453,2.871-2.628,3.968c-5.768,5.387-20.731,6.803-26.814,11.831
			L85.958,186.264z"/>
	</g>
	<path fill="#603813" d="M80.807,162.08c2.717,2.921,5.557,5.883,7.144,9.596c-0.146,2.132-0.351,4.254-0.631,6.362
		c-0.754,5.676-2.317,11.232-5.463,16.068c-0.362,0.557,0.529,1.074,0.89,0.52c4.312-6.627,5.662-14.439,6.138-22.23
		c0.039-0.034,0.075-0.074,0.106-0.125c4.592-7.676,13.328-11.721,17.67-19.6c0.32-0.581-0.569-1.101-0.889-0.52
		c-4.07,7.385-12.021,11.409-16.783,18.23c0.065-1.478,0.105-2.952,0.135-4.413c0.085-4.342,0.028-8.684-0.137-13.021
		c2.331-3.164,5.487-5.691,7.926-8.797c2.317-2.952,4.33-6.117,6.056-9.448c0.304-0.587-0.584-1.109-0.89-0.52
		c-1.863,3.598-4.06,7.012-6.625,10.152c-2.022,2.477-4.499,4.584-6.533,7.041c-0.261-5.913-0.714-11.819-1.276-17.711
		c2.725-5.501,7.997-9.422,9.779-15.434c0.188-0.637-0.806-0.909-0.993-0.273c-1.604,5.414-6.153,9.123-8.965,13.878
		c-0.029-0.3-0.059-0.6-0.089-0.9c-0.673-6.677-1.47-13.34-2.266-20.002c-0.078-0.65-1.108-0.658-1.03,0
		c0.855,7.156,1.71,14.316,2.414,21.489c-3.118-4.668-6.427-9.201-9.923-13.595c-0.412-0.519-1.137,0.214-0.728,0.728
		c3.731,4.69,7.243,9.545,10.537,14.553c0.078,0.119,0.183,0.186,0.292,0.216c0.33,3.51,0.626,7.023,0.858,10.542
		c0.152,2.293,0.293,4.603,0.41,6.92c-4.447-4.833-8.894-9.667-13.34-14.5c-0.449-0.489-1.177,0.241-0.729,0.728
		c4.633,5.036,9.266,10.072,13.898,15.107c0.075,0.082,0.158,0.127,0.242,0.147c0.247,5.439,0.336,10.917,0.06,16.347
		c-1.49-2.699-3.545-5.015-5.646-7.299c-3.191-3.469-6.49-6.835-9.789-10.201c-0.465-0.474-1.192,0.254-0.729,0.728
		C74.902,155.897,77.895,158.95,80.807,162.08z"/>
</g>
<g>
	<g>
		<path fill="#EBB371" d="M251.817,246.153c-6.975,5.776-21.521,7.137-29.775,3.411c-2.904-1.311-5.729-3.122-7.363-5.856
			c-1.043-1.745-1.541-3.776-1.681-5.804c-0.441-6.423,2.588-12.625,6.492-17.745c3.904-5.12,8.718-9.485,12.696-14.547
			c4.263-5.424,7.505-11.568,10.592-17.737c3.319,3.501,7.042,6.62,11.071,9.273c3.42,2.252,7.088,4.193,10.077,6.992
			c5.739,5.374,11.024,12.922,11.835,20.743c0.458,4.426-0.571,10.553-3.821,14.519
			C267.021,245.406,259.551,246.814,251.817,246.153z"/>
	</g>
	<path fill="#6B4624" d="M234.381,241.854c0.179,0.042,0.32-0.024,0.412-0.143c4.918-1.704,9.834-3.388,14.374-0.528
		c1.366,1.221,2.173,2.792,2.005,4.87c-0.004,0.042-0.003,0.082,0.002,0.119c-0.211,2.568-1.289,4.89-3.14,6.752
		c-0.404,0.059-0.646,0.684-0.196,0.963c0.061,0.037,0.118,0.063,0.177,0.095c0.11,0.252,0.395,0.429,0.699,0.263
		c1.487,0.298,2.518-1.237,3.204-3.168c1.963-3.732,2.079-8.163,2.067-12.408c1.314-3.614,5.051-5.404,8.351-7.051
		c2.961-1.479,5.864-3.183,7.452-6.208c0.308-0.586-0.581-1.107-0.89-0.52c-2.121,4.039-6.837,5.51-10.678,7.771
		c3.578-4.026,7.422-7.912,6.744-13.727c-0.076-0.65-1.106-0.658-1.03,0c0.657,5.64-3.115,9.507-6.663,13.531
		c0.795-2.671,0.742-5.598,1.586-8.274c0.2-0.634-0.793-0.905-0.992-0.274c-1.09,3.455-0.617,7.396-2.596,10.548
		c-0.093,0.148-0.098,0.293-0.051,0.417c-0.906,0.887-1.648,1.928-2.136,3.211c-0.025,0.047-0.051,0.093-0.075,0.141
		c-0.223-1.293-0.564-2.562-1.016-3.791c-0.39-2.021-0.89-3.986-1.429-5.834c-0.114-0.392-0.237-0.784-0.365-1.177
		c-0.325-3.68,0.984-7.065,2.223-10.47c1.718-0.715,3.217-1.839,4.276-3.387c0.375-0.549-0.518-1.064-0.89-0.52
		c-0.737,1.079-1.755,1.939-2.904,2.554c0.9-2.588,1.629-5.21,1.44-8.005c-0.045-0.658-1.074-0.663-1.03,0
		c0.206,3.037-0.677,5.872-1.685,8.683c-0.043,0.067-0.068,0.143-0.08,0.22c-0.967,2.679-2.021,5.342-2.337,8.142
		c-2.795-7.385-6.721-15.006-3.757-22.814c0.234-0.62-0.76-0.888-0.993-0.273c-3.169,8.349,1.355,16.534,4.12,24.277
		c0.525,1.473,0.984,2.97,1.381,4.483c-0.787-1.243-1.699-2.41-2.735-3.474c-1.96-2.012-4.263-3.386-6.734-4.628
		c-0.227-2.208-1.025-4.188-2.343-5.988c-0.388-0.529-1.281-0.016-0.89,0.52c1.1,1.501,1.847,3.116,2.136,4.923
		c-3.084-1.521-6.32-3.377-7.153-6.98c-0.149-0.645-1.143-0.372-0.993,0.274c1.435,6.202,8.598,7.31,13.018,10.633
		c2.995,2.251,5.249,5.333,6.596,8.777c0.283,1.567,0.501,3.146,0.641,4.733c0.094,1.072,0.152,2.151,0.159,3.229
		c-0.019,0.137-0.034,0.275-0.048,0.415c-0.354-0.726-0.848-1.368-1.443-1.938c-0.018-0.134-0.088-0.264-0.229-0.359
		c-0.255-0.171-0.514-0.327-0.775-0.47c-2.323-1.677-5.558-2.61-8.216-3.269c-1.987-4.557-5.148-8.488-9.257-11.307
		c-0.548-0.375-1.063,0.516-0.52,0.889c3.714,2.548,6.588,6.067,8.511,10.111c-0.029-0.007-0.059-0.014-0.087-0.021
		c-6.134-1.467-14.064-3.423-15.752-10.531c-0.153-0.645-1.146-0.372-0.993,0.274c1.259,5.298,6.226,8.341,11.11,9.862
		c1.557,0.485,3.815,0.895,6.188,1.446c0.005,0.011,0.01,0.021,0.014,0.032c0.145,0.34,0.486,0.326,0.715,0.141
		c1.299,0.316,2.612,0.681,3.848,1.128c-2.75-0.183-5.607,0.512-8.234,1.4c-0.635,0.215-1.289,0.446-1.957,0.679
		c-2.608-1.072-5.079-2.428-7.474-3.912c-0.565-0.35-1.083,0.541-0.521,0.889c2.114,1.31,4.288,2.505,6.557,3.516
		c-4.408,1.47-9.248,2.59-13.125-0.53c-0.512-0.412-1.245,0.313-0.729,0.728C223.987,245.328,229.18,243.653,234.381,241.854z"/>
</g>
<g>
	<g>
		<path fill="#FFC075" d="M62.906,277.192c-5.25-11.634-10.625-24.171-8.384-36.735c2.188-0.203,4.374-0.405,6.562-0.607
			c-0.896-3.233,0.365-6.658,1.908-9.636c4.11-7.93,10.415-14.708,18.027-19.381c0.727,1.739,1.452,3.478,2.179,5.216
			c9.765-1.349,19.634-1.945,29.489-1.781c1.327,6.05,1.394,12.375,0.195,18.452c2.019-0.031,4.027-0.559,5.8-1.525
			c1.948,6.166,1.642,13.016-0.849,18.983c-2.489,5.967-7.145,11.003-12.896,13.955c1.612,1.369,3.509,2.403,5.533,3.015
			c-0.36,3.666-4.441,5.582-7.942,6.725c-11.317,3.695-27.535,5.739-39.267,3.714L62.906,277.192z"/>
	</g>
	<path fill="#C69C6D" d="M98.364,270.508c0.636-0.181,0.365-1.175-0.274-0.993c-9.782,2.79-20.077,3.062-29.987,0.799
		c1.368-2.335,2.819-4.624,4.32-6.875c9.212,1.176,18.472,0.787,27.677-0.264c0.65-0.074,0.658-1.104,0-1.03
		c-8.992,1.026-18.036,1.419-27.037,0.341c0.813-1.204,1.639-2.399,2.473-3.584c0.539-0.767,1.091-1.526,1.641-2.286
		c9.964,1.061,19.902-0.286,29.8-1.412c0.651-0.074,0.659-1.104,0-1.03c-9.668,1.101-19.375,2.408-29.107,1.479
		c1.884-2.569,3.833-5.089,5.833-7.568c8.848,1.53,17.669,1.251,26.528-0.087c0.653-0.099,0.376-1.091-0.273-0.993
		c-8.512,1.286-17.013,1.57-25.514,0.164c1.407-1.724,2.844-3.423,4.306-5.1c7.871,1.401,15.813,0.877,23.696-0.185
		c0.653-0.088,0.375-1.08-0.274-0.993c-7.516,1.012-15.12,1.524-22.631,0.271c1.734-1.966,3.506-3.9,5.313-5.799
		c5.317,0.903,10.707,1.262,16.09,0.822c0.656-0.054,0.662-1.084,0-1.03c-5.093,0.416-10.194,0.119-15.231-0.694
		c1.36-1.412,2.746-2.798,4.146-4.169c3.168,0.868,6.424,1.067,9.697,1.165c0.663,0.02,0.662-1.01,0-1.03
		c-2.983-0.089-5.938-0.262-8.836-0.977c0.887-0.858,1.781-1.708,2.683-2.55c2.034,0.409,4.088,0.679,6.165,0.465
		c0.653-0.067,0.66-1.098,0-1.03c-1.766,0.182-3.506,0.01-5.237-0.304c1.283-1.187,2.577-2.362,3.889-3.517
		c0.499-0.438-0.232-1.165-0.728-0.728c-1.357,1.195-2.702,2.41-4.035,3.641c-0.521-1.746-0.793-3.528-0.923-5.356
		c-0.047-0.657-1.077-0.662-1.029,0c0.148,2.094,0.466,4.135,1.119,6.13c-0.895,0.835-1.782,1.678-2.665,2.529
		c-0.96-3.063-1.879-6.144-2.416-9.313c-0.111-0.652-1.104-0.375-0.993,0.273c0.568,3.352,1.563,6.605,2.583,9.842
		c-1.482,1.447-2.947,2.915-4.391,4.406c-1.969-4.77-3.801-9.605-4.774-14.69c-0.124-0.65-1.116-0.375-0.993,0.274
		c1.01,5.273,2.943,10.279,4.995,15.222c-1.832,1.913-3.63,3.862-5.39,5.845c-3.243-6.184-5.711-12.755-7.048-19.62
		c-0.127-0.649-1.119-0.375-0.993,0.274c1.376,7.061,3.949,13.823,7.313,20.169c-1.476,1.681-2.922,3.387-4.34,5.117
		c-4.152-6.903-8.307-13.94-10.404-21.778c-0.172-0.64-1.165-0.368-0.993,0.274c2.154,8.046,6.442,15.267,10.705,22.35
		c-2.038,2.513-4.013,5.077-5.917,7.687c-3.955-7.314-7.003-15.057-9.098-23.107c-0.166-0.641-1.16-0.369-0.992,0.274
		c2.154,8.283,5.316,16.25,9.42,23.759c-1.44,1.999-2.841,4.024-4.195,6.077c-4.086-6.332-7.249-13.21-9.192-20.502
		c-0.171-0.64-1.165-0.368-0.993,0.274c2.009,7.534,5.305,14.652,9.569,21.17c-1.429,2.194-2.806,4.418-4.129,6.67
		c-5.077-7.464-8.487-16.058-9.495-25.052c-0.073-0.651-1.104-0.659-1.03,0c1.05,9.366,4.591,18.31,9.954,26.038
		c-2.892,5.021-5.371,10.271-7.11,15.805c-0.199,0.634,0.795,0.905,0.993,0.274c1.708-5.434,4.141-10.569,6.963-15.497
		C77.73,273.619,88.32,273.373,98.364,270.508z"/>
</g>
<g>
	<g>
		<path fill="#C96F06" d="M195.23,259.818c-0.563-9.405-1.254-18.803-2.075-28.189c-3.326,2.482-6.652,4.964-9.979,7.446
			c-0.961,0.717-2.1,1.475-3.266,1.19c-0.865-0.211-1.486-0.948-2.045-1.643c-2.842-3.537-5.683-7.073-8.524-10.61
			c-2.059,9.489-8.948,17.898-8.65,27.603c0.039,1.25-0.044,2.882-1.243,3.239c-0.412,0.122-0.855,0.039-1.269-0.08
			c-3.091-0.888-5.283-3.604-6.958-6.35c-1.675-2.746-3.101-5.741-5.523-7.856c-1.732,1.394-0.346,4.585-1.87,6.204
			c-0.798,0.847-2.108,0.927-3.268,0.822c-5.683-0.513-11.069-4.045-16.7-3.121c2.369,3.402,4.738,6.805,7.106,10.208
			c0.758,1.087,1.549,2.303,1.409,3.62c-0.113,1.064-0.816,1.959-1.492,2.79c-1.169,1.437-2.338,2.873-3.507,4.31
			c-0.297,0.366-0.614,0.813-0.489,1.268c0.186,0.676,1.101,0.739,1.801,0.722c6.876-0.165,12.412,5.321,17.048,10.402
			c0.65,0.712,1.346,1.562,1.214,2.517c-0.136,0.986-1.086,1.617-1.935,2.137c-7.245,4.443-13.648,10.255-18.771,17.038
			c-0.167,0.221-0.342,0.497-0.245,0.757c0.093,0.249,0.384,0.348,0.641,0.415c5.842,1.535,11.861,2.388,17.899,2.537
			c0.553,0.014,1.189,0.063,1.512,0.513c0.35,0.49,0.127,1.166-0.106,1.721c-1.127,2.682-2.255,5.364-3.382,8.046
			c5.263-0.412,9.738-3.899,14.768-5.504c0.457-0.146,0.957-0.275,1.406-0.108c0.84,0.312,1.009,1.411,0.999,2.307
			c-0.067,5.797-1.998,11.559-5.438,16.225c8.31-2.196,16.454-5.661,22.872-11.377s10.953-13.908,10.941-22.503l0.505-0.401
			c8.322-1.481,15.991-6.345,20.878-13.242c-2.651-0.835-5.441-1.231-8.222-1.166c3.378-10.726,5.124-21.964,5.16-33.21
			c-3.87,3.129-8.044,7.059-10.786,11.212L195.23,259.818z"/>
	</g>
	<path fill="#603813" d="M197.266,278.132c-1.728,2.281-3.979,4.092-5.952,6.142c0.672-1.279,1.381-2.535,2.038-3.771
		c2.439-4.588,3.953-9.482,4.446-14.66c0.063-0.659-0.968-0.655-1.03,0c-0.545,5.738-2.543,10.722-5.181,15.72
		c-0.576-4.709-2.07-9.442-0.563-14.106c0.204-0.632-0.79-0.903-0.993-0.274c-1.717,5.314,0.327,10.652,0.685,16.003
		c-0.804,1.495-1.566,3.039-2.164,4.624c-0.019,0.031-0.039,0.061-0.057,0.092c-0.05,0.086-0.068,0.171-0.069,0.251
		c-0.819,2.276-1.283,4.636-1.024,7.059c-2.154-3.087-3.214-6.717-4.129-10.335c-1.099-4.35-2.051-8.737-2.847-13.152
		c-0.301-1.665-0.601-3.35-0.874-5.046c0.593-2.707,1.602-5.277,2.64-7.836c2.296-1.488,4.173-3.502,5.204-6.063
		c0.248-0.615-0.748-0.882-0.993-0.274c-0.731,1.816-1.98,3.333-3.485,4.547c1.103-2.739,2.135-5.499,2.621-8.434
		c0.108-0.648-0.885-0.927-0.993-0.274c-0.569,3.438-1.887,6.635-3.19,9.838c-0.079,0.089-0.117,0.194-0.122,0.301
		c-0.753,1.854-1.492,3.712-2.071,5.624c-0.924-6.53-1.283-13.183,0.333-19.572c0.162-0.643-0.831-0.917-0.993-0.274
		c-1.905,7.531-1.12,15.387,0.118,23.01c-0.556-1.63-1.207-3.227-2.004-4.755c-1.655-3.171-4.088-5.934-4.87-9.503
		c-0.142-0.647-1.135-0.373-0.992,0.274c0.72,3.287,2.785,5.883,4.425,8.747c1.821,3.182,2.941,6.687,3.809,10.233
		c1.622,6.631,2.475,13.468,5.433,19.695c0.021,0.046,0.049,0.083,0.076,0.117c0.083,0.189,0.168,0.377,0.255,0.564
		c-0.127-0.124-0.255-0.247-0.383-0.37c-3.516-3.557-7.404-6.89-10.265-10.995c-2.874-4.124-4.803-8.804-6.697-13.432
		c-0.247-0.605-1.244-0.34-0.992,0.273c1.928,4.71,3.875,9.481,6.8,13.678c0.827,1.187,1.737,2.309,2.697,3.392
		c-0.58-0.433-1.163-0.859-1.749-1.281c-4.73-3.405-9.631-6.585-14.631-9.584c-0.025-0.057-0.062-0.113-0.116-0.165
		c-4.747-4.562-8.024-10.38-12.729-14.98c-0.474-0.464-1.202,0.264-0.728,0.728c3.908,3.823,6.834,8.484,10.436,12.569
		c-2.607-1.511-5.241-2.975-7.904-4.383c-2.817-1.489-5.678-2.896-8.04-5.076c-0.486-0.449-1.216,0.277-0.728,0.728
		c2.126,1.963,4.627,3.334,7.173,4.673c1.79,0.941,3.569,1.902,5.338,2.882c-2.181,0.089-4.36,0.178-6.541,0.267
		c-0.66,0.027-0.664,1.057,0,1.029c2.746-0.112,5.492-0.224,8.239-0.336c0.004,0,0.008-0.001,0.014-0.002
		c0.471,0.267,0.941,0.532,1.411,0.803c5.642,3.252,11.154,6.737,16.494,10.466c0.503,0.352,1.006,0.708,1.507,1.066
		c-3.556-1.129-7.251-1.735-10.966-1.803c-1.206-0.817-2.505-1.454-3.888-1.917c-0.63-0.211-0.9,0.783-0.273,0.993
		c0.754,0.253,1.473,0.568,2.167,0.934c-2.566,0.085-5.13,0.428-7.649,1.032c-0.645,0.154-0.372,1.147,0.273,0.993
		c2.983-0.715,6.042-1.051,9.094-1.019c0.07,0.018,0.137,0.019,0.199,0.004c4.786,0.075,9.552,1.058,13.979,2.948
		c1.793,1.364,3.551,2.788,5.24,4.282c-2.325-0.529-4.72-0.573-7.072-0.229c-4.776,0.404-9.474,1.857-14.037,3.37
		c-0.875,0.29-1.749,0.587-2.623,0.887c-3.139-0.782-6.337-0.795-9.535-0.372c-0.647,0.086-0.656,1.117,0,1.03
		c2.554-0.338,5.092-0.402,7.611,0.003c-5.745,1.975-11.516,3.921-17.571,4.632c-0.65,0.076-0.658,1.107,0,1.03
		c7.125-0.836,13.829-3.328,20.584-5.611c2.654-0.896,5.368-1.824,8.123-2.567c-0.462,0.233-0.917,0.479-1.363,0.737
		c-6.081,3.53-10.569,9.176-14.848,14.621c-0.405,0.516,0.318,1.249,0.729,0.728c5.454-6.942,12.795-15.339,21.658-17.343
		c2.691-0.336,5.406-0.356,8.127,0.135c0.084,0.015,0.16,0.011,0.229-0.006c0.567,0.147,1.139,0.324,1.714,0.531
		c0.463,0.464,0.92,0.93,1.369,1.402c0.065,0.068,0.136,0.11,0.208,0.134c0.378,0.38,0.751,0.765,1.118,1.154
		c-4.45,0.063-8.707,3.995-11.509,6.968c-4.076,4.323-7.15,9.463-10.171,14.544c-0.34,0.571,0.551,1.09,0.89,0.52
		c2.69-4.525,5.406-9.095,8.874-13.081c0.343-0.394,0.695-0.781,1.053-1.164c-1.492,3.053-2.398,6.371-2.612,9.783
		c-0.042,0.662,0.988,0.66,1.029,0c0.274-4.367,1.759-8.559,4.148-12.212c0.025-0.039,0.044-0.077,0.058-0.115
		c0.637-0.556,1.294-1.088,1.978-1.586c1.97-1.434,4.703-2.972,7.224-2.582c0.009,0.001,0.017,0.001,0.025,0.002
		c3.313,3.706,6.108,7.831,8.019,12.515c0.247,0.606,1.243,0.341,0.993-0.273c-1.763-4.321-4.245-8.177-7.185-11.672
		c-0.002-0.038-0.008-0.076-0.019-0.117c-0.801-2.982-0.314-5.813,0.705-8.527c2.215-3.783,6.076-6.189,8.701-9.655
		C198.555,278.124,197.66,277.61,197.266,278.132z"/>
</g>
<g>
	<g>
		<path fill="#E6D2BE" d="M228.394,321.68c-4.708-1.459-11.008-2.373-14.785-5.541c-0.374,1.326-0.323,2.769,0.144,4.065
			c-4.529,0.427-9.06,0.853-13.59,1.28c0.229,4.884,3.722,9.167,7.996,11.541c4.274,2.374,9.244,3.134,14.115,3.555
			c-1.987,4.204-3.248,8.75-3.71,13.377c3.534-0.284,7.126-0.58,10.437-1.853c3.31-1.272,8.763-5.256,9.955-8.595
			c3.048,1.459,6.199,2.841,9.553,3.243c3.355,0.403,6.986-0.296,9.484-2.57c0.258-0.235,0.518-0.516,0.547-0.864
			c0.047-0.557-0.492-0.965-0.967-1.257c-2.93-1.8-5.86-3.601-8.79-5.402c4.763-1.913,9.554-4.004,13.456-7.336
			c3.904-3.333,6.855-8.122,6.848-13.254c-2.918,0.518-5.837,1.035-8.771,1.46c-1.515,0.22-3.159,0.393-4.487-0.369
			c-1.329-0.761-1.95-2.854-0.772-3.832c-5.028,1.889-9.667,4.809-13.546,8.525c-0.689-7.921-1.307-15.849-1.853-23.782
			c-1.328,0.776-2.655,1.552-3.983,2.327c-0.358,0.209-0.814,0.42-1.165,0.197c-0.201-0.128-0.301-0.364-0.388-0.586
			c-1.803-4.558-3.605-9.116-5.408-13.674c-3.295,6.73-5.519,13.984-6.562,21.405c-1.516-0.042-3.031-0.084-4.547-0.126
			C218.136,310.87,222.259,317.773,228.394,321.68z"/>
	</g>
	<path fill="#C69C6D" d="M259.757,318.208c-5.239,2.257-11.114,4.173-15.689,7.689c1.654-2.724,4.065-4.917,6.847-6.525
		c0.572-0.332,0.055-1.222-0.521-0.889c-3.695,2.138-6.693,5.237-8.369,9.182c-1.915,1.887-3.534,4.221-4.07,6.753
		c-0.941-2.996-2.047-5.962-3.165-8.924c0.01-0.021,0.02-0.04,0.026-0.063c1.366-4.452,1.589-9.068,0.688-13.636
		c-0.128-0.649-1.121-0.375-0.993,0.274c0.779,3.953,0.657,7.933-0.332,11.809c-0.77-2.042-1.53-4.083-2.233-6.132
		c0.04-0.151,0.01-0.321-0.132-0.466c-0.015-0.015-0.028-0.03-0.043-0.044c-0.521-1.545-1.007-3.096-1.436-4.655
		c0.01-0.016,0.021-0.029,0.03-0.046c1.334-2.619,2.091-5.402,2.27-8.335c0.039-0.662-0.99-0.66-1.03,0
		c-0.146,2.4-0.702,4.68-1.671,6.854c-1.301-5.233-1.879-10.571-0.922-16.143c0.111-0.648-0.881-0.927-0.993-0.274
		c-1.256,7.312,0.09,14.205,2.247,20.974c-2.745-3.131-4.948-6.695-5.796-10.842c-0.132-0.649-1.125-0.375-0.992,0.273
		c1.03,5.05,4.024,9.3,7.571,12.93c1.969,5.717,4.37,11.371,6.115,17.141c-0.943-0.995-2.098-1.802-3.347-2.479
		c-0.061-0.076-0.153-0.134-0.286-0.153c-0.002,0-0.004,0-0.006-0.001c-1.885-0.979-3.959-1.676-5.842-2.276
		c-1.113-0.354-2.234-0.686-3.358-1.006c-2.251-1.971-4.598-3.878-7.21-5.351c-0.578-0.326-1.098,0.563-0.521,0.889
		c1.931,1.088,3.708,2.413,5.41,3.828c-1.175-0.308-2.353-0.602-3.536-0.872c-3.063-0.697-6.403-1.071-8.895-3.162
		c-0.504-0.423-1.236,0.302-0.728,0.728c1.801,1.512,3.908,2.214,6.173,2.734c2.922,0.671,5.842,1.292,8.73,2.106
		c0.032,0.009,0.065,0.019,0.098,0.028c-2.848,0.736-5.781,0.966-8.729,1.052c-0.661,0.02-0.664,1.049,0,1.03
		c3.571-0.104,7.137-0.405,10.546-1.538c0.023-0.007,0.042-0.019,0.063-0.028c1.734,0.476,3.629,1.019,5.418,1.75
		c-1.096,0.062-2.185,0.248-3.266,0.494c-0.646,0.147-0.373,1.14,0.273,0.993c1.669-0.379,3.393-0.653,5.104-0.406
		c0.055,0.008,0.105,0.006,0.155,0c1.583,0.884,2.958,1.992,3.888,3.428c-4.027-0.826-7.169,2.756-10.249,4.947
		c-0.535,0.381-0.021,1.274,0.52,0.89c3.073-2.187,6.226-6.075,10.389-4.574c0.061,0.147,0.117,0.298,0.17,0.452
		c0.079,0.32,0.155,0.642,0.229,0.963c0.001,0.086,0.02,0.16,0.052,0.222c0.862,3.842,1.314,7.755,1.047,11.791
		c-0.044,0.662,0.986,0.659,1.03,0c0.271-4.1-0.208-8.076-1.107-11.981c0.002-0.018,0.007-0.035,0.007-0.054
		c0.055-1.727,0.658-3.825,2.32-4.6c1.48,0.982,2.918,2.025,4.403,3c0.556,0.365,1.072-0.526,0.521-0.889
		c-1.235-0.811-2.438-1.669-3.658-2.5c1.429-0.25,2.934,0.049,4.325,0.417c0.642,0.17,0.915-0.823,0.274-0.993
		c-1.893-0.5-4.063-0.849-5.94-0.142c-0.021,0.005-0.039,0.013-0.058,0.021c-0.311,0.121-0.613,0.268-0.905,0.451
		c-0.886,0.558-1.47,1.504-1.831,2.545c-0.318-3.205,1.547-6.202,3.96-8.533c0.005-0.004,0.009-0.008,0.013-0.013
		c1.125-1.084,2.367-2.025,3.56-2.774c0.974-0.612,1.982-1.173,3.012-1.701c0.011,0.001,0.021,0.004,0.031,0.005
		c3.004,0.207,5.976-0.169,8.771-1.318c0.604-0.249,0.339-1.245-0.274-0.993c-2.099,0.863-4.282,1.274-6.514,1.325
		c2.923-1.354,5.962-2.509,8.881-3.768C260.884,318.836,260.359,317.949,259.757,318.208z"/>
</g>
<g>
	<g>
		<path fill="#603813" d="M124.094,198.208c-3.36-1.6-5.836-5.708-4.319-9.106c0.937-2.098,3.134-3.399,5.373-3.915
			c2.139-0.492,4.911-0.792,5.517-2.901c0.352-1.225-0.275-2.486-0.713-3.684c-0.438-1.197-0.608-2.744,0.368-3.562
			c1.425-1.193,3.453,0.322,4.784,1.62c1.871,1.825,3.998,3.389,6.299,4.631c0.888,0.479,2.24,0.782,2.696-0.117
			c0.158-0.312,0.14-0.683,0.082-1.028c-0.438-2.627-2.749-4.539-3.679-7.035c-0.464-1.247-0.45-2.888,0.646-3.643
			c0.441-0.304,0.989-0.41,1.524-0.453c4.459-0.361,8.303,3.041,11.077,6.549c1.434,1.812,2.928,3.845,5.166,4.418
			c0.704,0.18,1.617,0.105,1.931-0.55c0.168-0.351,0.106-0.762,0.041-1.146c-0.314-1.856-0.631-3.712-0.945-5.568
			c-0.171-1.002-0.288-2.181,0.437-2.895c1.232-1.213,3.242,0.177,4.268,1.569c2.269,3.083,3.992,6.565,5.067,10.239
			c0.299,1.026,0.559,2.088,1.157,2.974s1.633,1.57,2.689,1.412c1.954-0.292,2.446-2.904,2.15-4.857
			c-0.295-1.953-0.786-4.269,0.63-5.646c1.091-1.061,2.938-0.987,4.231-0.186s2.129,2.164,2.778,3.539
			c1.566,3.321,2.351,7.047,4.507,10.019c0.475,0.655,1.084,1.307,1.885,1.422c1.263,0.18,2.309-1.079,2.58-2.324
			s0.057-2.553,0.276-3.809c0.219-1.256,1.129-2.578,2.403-2.555c0.937,0.016,1.694,0.743,2.286,1.469
			c2.006,2.459,3.303,5.44,5.354,7.861c2.08,2.455,4.913,4.262,8.017,5.112c-1.588,0.498-3.176,0.995-4.764,1.492
			c-1.794,0.562-3.614,1.136-5.184,2.172c-3.69,2.436-5.353,6.931-8.161,10.347c-1.445,1.758-3.425,3.327-5.701,3.341
			s-4.569-2.227-3.868-4.393c0.178-0.549,0.525-1.072,0.477-1.647c-0.077-0.918-1.194-1.455-2.094-1.253
			c-0.9,0.201-1.596,0.9-2.2,1.597c-2.357,2.716-4.167,5.88-6.598,8.532c-2.43,2.652-5.739,4.837-9.334,4.701
			c-0.613-0.023-1.249-0.125-1.749-0.481c-1.27-0.908-1.006-2.885-0.307-4.28c1.406-2.81,3.976-4.981,5.006-7.949
			c0.218-0.627,0.353-1.355,0.019-1.93c-0.646-1.112-2.342-0.757-3.46-0.12c-3.002,1.711-5.336,4.358-7.967,6.599
			c-2.63,2.241-5.854,4.17-9.303,3.949c-1.765-0.113-3.696-1.038-4.115-2.756c-0.467-1.912,1.109-3.682,2.65-4.904
			c1.542-1.222,3.335-2.555,3.537-4.512c0.032-0.318,0.013-0.663-0.176-0.92c-0.424-0.58-1.328-0.369-1.976-0.059
			c-4.528,2.167-8.412,6.408-13.433,6.346c-0.669-0.008-1.441-0.165-1.752-0.757c-0.255-0.485-0.688-1.93-0.473-2.433
			c0.604-1.412,1.176-2.075,2.465-2.909c0.85-0.55,1.78-0.975,2.566-1.613C138.141,199.485,127.251,199.836,124.094,198.208z"/>
	</g>
	<path fill="#AD8660" d="M223.034,193.381c-8.629,2.402-17.428,2.668-26.208,1.905c-0.506-1.663-1.251-3.242-1.725-4.916
		c-0.18-0.637-1.174-0.366-0.993,0.273c0.438,1.549,1.11,3.014,1.609,4.541c-3.239-0.313-6.477-0.759-9.699-1.284
		c-0.468-0.076-0.935-0.141-1.401-0.209c-1.6-3.587-2.902-7.313-4.612-10.85c-0.288-0.596-1.177-0.075-0.89,0.52
		c1.601,3.312,2.847,6.788,4.312,10.161c-0.026-0.003-0.052-0.006-0.078-0.01c-0.104-0.048-0.219-0.065-0.327-0.04
		c-3.976-0.503-7.941-0.718-11.949-0.671c-1.509-4.838-3.563-9.461-6.152-13.82c-0.338-0.569-1.229-0.052-0.889,0.52
		c2.498,4.206,4.488,8.654,5.964,13.314c-0.204,0.005-0.409,0.014-0.612,0.021c-0.01,0-0.019,0-0.027,0.001
		c-0.487,0.015-0.974,0.026-1.462,0.048c-2.539,0.114-5.075,0.291-7.611,0.465c-2.931-5.298-6.629-10.135-10.841-14.478
		c-0.462-0.477-1.189,0.252-0.728,0.728c4.035,4.162,7.578,8.777,10.427,13.828c-3.294,0.223-6.589,0.424-9.892,0.459
		c-0.375,0.004-0.75,0.004-1.125,0.004c-3.112-3.473-6.578-6.589-10.272-9.432c-0.524-0.404-1.038,0.49-0.52,0.889
		c3.356,2.583,6.513,5.418,9.386,8.529c-6.04-0.113-12.05-0.912-17.71-3.146c-0.615-0.243-0.884,0.752-0.273,0.993
		c6.119,2.416,12.512,3.136,18.966,3.171c0.117,0.054,0.24,0.047,0.351,0c0.606,0.001,1.214-0.003,1.821-0.013
		c-3.162,3.847-7.343,6.672-11.644,9.123c-0.576,0.328-0.058,1.218,0.52,0.889c4.671-2.662,9.126-5.76,12.448-10.041
		c2.905-0.08,5.815-0.262,8.711-0.454c0.058,0.007,0.117,0.002,0.175-0.011c1.607-0.107,3.211-0.216,4.807-0.313
		c1.139-0.069,2.275-0.125,3.41-0.166c-5.248,6.402-11.389,12.144-18.691,16.126c-0.582,0.317-0.063,1.207,0.52,0.889
		c7.667-4.181,14.091-10.282,19.527-17.058c4.247-0.109,8.47,0.012,12.7,0.529c-3.719,6.866-8.485,13.037-14.267,18.302
		c-0.491,0.447,0.238,1.174,0.728,0.728c5.95-5.417,10.846-11.796,14.633-18.887c0.434,0.06,0.866,0.124,1.3,0.192
		c3.264,0.518,6.515,1.015,9.779,1.388c-2.697,3.429-5.11,7.071-7.854,10.466c-0.413,0.511,0.312,1.244,0.729,0.728
		c2.902-3.592,5.432-7.463,8.324-11.063c2.476,0.258,4.962,0.439,7.47,0.488c6.779,0.131,13.569-0.544,20.112-2.366
		C223.945,194.196,223.675,193.203,223.034,193.381z"/>
</g>
<g>
	<g>
		<path fill="#FBB03B" d="M319.533,250.901c-1.385-3.497-6.114-7.521-9.469-9.221c-3.355-1.7-7.083-2.513-10.789-3.151
			c-5.684-0.979-11.432-1.585-17.194-1.814c0.861,3.119,1.743,6.285,3.432,9.046c1.688,2.761,4.319,5.113,7.501,5.707
			c-6.985-1.95-14.263,2.033-19.682,6.852c-5.419,4.82-10.096,10.722-16.608,13.914c10.571,2.67,21.623-0.724,31.995-4.085
			c-7.202,3.865-13.43,9.53-17.957,16.335c-4.517,6.789-7.534,14.874-13.926,19.937c12.535-0.326,24.995-3.306,36.322-8.686
			c-5.848,4.476-7.409,12.645-7.164,20.004s1.85,14.773,0.558,22.022c7.073-3.437,14.28-6.966,19.896-12.47
			c5.616-5.504,9.464-13.429,8.104-21.174c1.033,4.796,2.982,9.976,6.726,13.62s8.137,6.686,11.201,10.917
			c1.772-6.592,3.554-13.23,4.075-20.037c0.521-6.806-0.287-13.866-3.453-19.914c4.813,7.518,12.307,13.28,20.809,16
			c3.118-14.774-2.769-31.081-14.603-40.458c6.969,0.908,14.282-1.263,19.628-5.826C349.452,248.811,332.15,246.094,319.533,250.901
			z"/>
	</g>
	<path fill="#C96D00" d="M348.162,260.081c-0.182-0.377-0.417-0.669-0.691-0.889c0.005-0.161-0.066-0.323-0.249-0.428
		c-4.021-2.309-8.649-1.575-12.96-0.612c-2.883,0.644-8.192,1.898-11.674,0.595c-0.26-0.273-0.487-0.569-0.687-0.891
		c-0.001-0.141,0.005-0.273,0.02-0.394c1.018-0.012,2.03-0.165,2.709-0.297c0.726-0.142,1.449-0.35,2.173-0.595
		c0.121-0.021,0.242-0.042,0.36-0.063c0.132-0.024,0.223-0.085,0.283-0.164c0.289-0.105,0.577-0.214,0.866-0.327
		c0.537-0.144,1.07-0.306,1.602-0.47c1.193-0.368,2.385-0.776,3.618-0.99c0.215-0.038,0.42-0.057,0.621-0.068
		c0.083,0.018,0.17,0.017,0.257-0.008c1.032-0.013,1.934,0.241,3.032,0.282c0.758,0.028,1.486-0.486,1.418-1.119
		c0.155-0.269,0.1-0.657-0.288-0.743c-0.078-0.018-0.155-0.029-0.232-0.044c-0.717-0.542-1.773-0.448-2.728-0.121
		c-1.907,0.182-3.745,0.862-5.592,1.597c-0.301,0.12-1.037,0.391-1.988,0.7c-0.331,0.087-0.663,0.168-1,0.234
		c-1.264,0.25-2.421,0.148-3.687,0.138c-0.061,0-0.121,0.001-0.182,0.002c-1.065-0.422-1.787-1.343-1.767-3.081
		c0.025-2.117,0.329-4.267,0.628-6.359c0.009-0.06,0.006-0.114-0.001-0.167c0.049-0.309,0.094-0.617,0.127-0.925
		c0.073-0.667,0.063-1.522-0.763-1.717c-0.68-0.161-0.974,0.317-1.158,0.853c-0.406,1.181-0.509,2.604-0.58,3.94
		c-0.013,0.104-0.021,0.208-0.031,0.313c-0.059,0.075-0.099,0.171-0.105,0.288c-0.123,1.833-0.637,3.92-2.314,4.757
		c-0.198-0.008-0.394-0.029-0.586-0.058c-1.656-0.74-3.048-1.971-4.484-3.146c-1.858-1.52-3.813-2.917-5.87-4.156
		c-3.599-2.166-8.298-4.745-12.312-2.084c-0.289,0.192-0.33,0.549-0.104,0.809c0.691,0.795,1.568,0.692,2.552,0.637
		c0.165-0.009,0.327-0.011,0.491-0.013c3.669,0.803,7.339,1.731,10.708,3.414c0.152,0.076,0.3,0.158,0.448,0.238
		c0.397,0.273,0.792,0.552,1.178,0.846c0.794,0.604,1.582,1.292,2.394,1.947c-1.668-0.666-3.551-1.01-5.126-1.478
		c-1.97-0.585-3.987-1.383-6.002-1.783c-0.637-0.126-1.468-0.224-1.797,0.504c-0.474,1.051,0.642,1.805,2.06,2.327
		c0.955,0.495,1.993,0.695,3.064,0.794c0.459,0.085,0.825,0.144,1.021,0.177c3.166,0.545,6.577,0.831,9.173,2.784
		c-1.518-0.026-3.037-0.038-4.557-0.023c-12.826-0.677-25.714,2.845-36.413,10.031c-0.173,0.116-0.323,0.364-0.236,0.581
		c0.646,1.613,2.572,0.295,3.582-0.259c5.692-1.617,10.81-4.723,16.323-6.86c0.113-0.044,0.229-0.082,0.343-0.124
		c2.415-0.588,4.861-1.049,7.327-1.386c0.254,0.001,0.508,0,0.765,0.009c0.169,0.005,0.295-0.058,0.378-0.156
		c2.475-0.297,4.968-0.468,7.467-0.507c-1.138,0.366-2.264,0.788-3.382,1.239c-1.928,0.528-3.829,1.198-5.71,1.888
		c-2.508,0.92-5.014,1.873-7.611,2.511c-0.876,0.215-3.225,0.472-2.654,1.991c0.506,1.349,2.879,0.25,3.707-0.022
		c2.231-0.731,4.341-1.781,6.465-2.771c3.857-1.797,7.836-3.033,11.98-3.606c0.957-0.046,1.922-0.026,2.895,0.07
		c-0.215,0.247-0.428,0.496-0.641,0.746c-5.518,4.666-12.807,7.147-18.922,10.912c-3.17,1.952-6.15,4.216-8.889,6.74
		c-3.502,2.823-6.85,6.013-8.791,10.078c-0.167,0.03-0.318,0.14-0.378,0.353c-0.251,0.897-1.367,3.156,0.198,3.539
		c1.68,0.411,2.69-2.901,3.305-3.904c2.791-4.558,6.448-8.524,10.721-11.729c0.075-0.057,0.127-0.125,0.162-0.198
		c6.111-4.098,13.18-7.319,19.164-11.599c-3.104,3.925-6.125,8.037-9.267,12.021c-1.785,2.103-3.571,4.205-5.418,6.254
		c-0.172,0.19-0.347,0.378-0.52,0.568c-2.904,2.918-5.904,5.753-9.047,8.401c-0.245,0.207-0.492,0.411-0.74,0.614
		c-4.293,2.82-8.968,4.935-13.943,6.292c-0.158,0.043-0.333,0.188-0.359,0.36c-0.086,0.542,0.091,0.86,0.441,1.019
		c0.095,0.098,0.228,0.156,0.388,0.141c0.112,0.134,0.286,0.217,0.504,0.17c4.693-1.003,8.888-3.389,12.73-6.348
		c4.695-3.273,8.794-7.378,12.617-11.83c3.287-3.372,6.455-6.859,9.479-10.47c1.272-1.519,2.478-3.097,3.727-4.637
		c0.229-0.231,0.455-0.465,0.688-0.693c0.729-0.716,1.619-1.799,2.61-2.475c0.076,0.023,0.16,0.032,0.252,0.018
		c0.294-0.045,0.563-0.045,0.815-0.011c0.014,0.384,0.033,0.769,0.06,1.153c-0.986,4.244-2.608,8.297-4.857,12.061
		c-2.558,4.279-5.737,8.135-8.68,12.147c-2.888,3.938-5.538,8.066-7.17,12.696c-1.72,4.882-2.315,10.086-1.858,15.234
		c0.023,0.26,0.18,0.417,0.363,0.472c0.163,0.11,0.396,0.124,0.57,0.032c0.174-0.091,0.318-0.216,0.441-0.36
		c0.27,0.018,0.557-0.146,0.565-0.494c0.142-5.784,0.489-11.792,3-17.107c2.382-5.045,6.542-8.899,9.894-13.273
		c2.895-3.777,5.224-7.919,7.022-12.285c-2.418,18.87-5.938,38.918-20.169,52.665c-0.227,0.219-0.193,0.662,0.104,0.809
		c2.09,1.035,3.952-1.888,5.1-3.241c1.523-1.796,2.907-3.708,4.168-5.697c1.188-1.529,2.279-3.133,3.221-4.848
		c2.731-4.971,4.262-10.489,5.344-16.028c1.987-7.929,2.987-16.056,3.896-24.188c0.182-1.277,0.361-2.555,0.542-3.832
		c0.064,1.44,0.115,2.88,0.146,4.322c0,0.005,0.001,0.009,0.002,0.014c-0.129,3.063-0.198,6.129-0.152,9.191
		c-0.09,1.632-0.112,3.262-0.023,4.887c0.141,2.531,0.482,5.041,1.006,7.508c0.522,3.34,1.283,6.644,2.38,9.845
		c1.095,3.196,2.353,6.756,5.003,8.991c0.387,0.417,0.8,0.813,1.241,1.187c0.219,0.186,0.51,0.202,0.729,0
		c0.427-0.394,0.427-0.798,0.235-1.341c-0.291-0.827-1.027-1.657-1.655-2.414c-0.332-0.546-0.721-1.079-1.044-1.634
		c-1.128-1.942-2.089-3.98-2.887-6.08c-1.511-3.979-2.469-8.163-2.989-12.384c-0.554-4.491-0.618-9.006-0.409-13.516
		c0.033,0.15,0.061,0.3,0.096,0.45c1.558,6.702,5.506,12.498,7.446,19.062c-0.069,0.105-0.094,0.242-0.037,0.403
		c0.183,0.517,0.365,1.033,0.548,1.549c0.098,0.276,0.473,0.527,0.756,0.308c0.065-0.05,0.121-0.107,0.181-0.161
		c0.16-0.039,0.308-0.152,0.382-0.347c0.022-0.057,0.034-0.111,0.053-0.167c0.125-0.204,0.224-0.425,0.276-0.674
		c0.039-0.186-0.017-0.339-0.116-0.45c-0.027-0.661-0.243-1.304-0.502-1.992c-0.567-1.507-1.186-2.995-1.796-4.484
		c-1.14-2.78-2.298-5.555-3.308-8.386c-1.463-4.104-2.583-8.347-2.883-12.662c-0.004-0.39-0.003-0.781,0.006-1.173
		c0.004-0.114-0.026-0.207-0.075-0.282c-0.016-0.632-0.01-1.265,0.013-1.899c0.877,1.748,2.045,3.29,3.369,4.711
		c1.4,1.782,3.004,3.412,4.4,4.856c0.947,0.979,2.045,1.935,3.179,2.907c2.988,3.063,5.508,6.5,7.524,10.288
		c0.014,0.025,0.031,0.046,0.049,0.068c0.338,0.603,0.896,1.076,1.582,1.304c0.277,0.092,0.546-0.108,0.634-0.36
		c0.227-0.648,0.157-1.302-0.142-1.914c-0.037-0.076-0.084-0.133-0.137-0.175c-1.476-5.613-6.859-9.098-10.892-12.885
		c-3.068-2.882-5.908-6.174-7.823-9.892c2.163,2.429,5.159,4.356,7.874,5.888c5.638,3.182,11.683,6.866,14.607,12.706
		c0.411,1.094,0.822,2.188,1.233,3.281c0.051,0.2,0.102,0.399,0.146,0.604c0.03,0.138,0.102,0.231,0.189,0.291
		c0.067,0.179,0.135,0.358,0.201,0.537c0.152,0.404,0.7,0.526,0.941,0.123c1.455-2.423-0.166-5.036-1.686-6.991
		c-2.086-2.685-4.624-4.96-7.338-6.993c-2.787-2.088-5.758-3.913-8.727-5.728c-2.681-1.639-5.959-3.462-7.247-6.375
		c-0.039-0.122-0.077-0.243-0.116-0.365c-0.134-0.502-0.246-1.01-0.326-1.528c3.385,1.353,6.976,1.446,10.717,0.79
		c2.695-0.473,5.384-1.189,8.137-1.192c2.512-0.003,4.818,1.375,7.281,1.215c0.069,0.024,0.14,0.048,0.209,0.072
		C348.041,260.997,348.34,260.452,348.162,260.081z"/>
</g>
</svg>
