<svg width="403" height="542" viewBox="0 0 403 542" fill="none" xmlns="http://www.w3.org/2000/svg">
<path d="M-54.406 304.33C-114.348 297.643 -172.438 260.476 -198.919 214C-189.392 211.776 -179.875 209.552 -170.357 207.328C-184.091 188.718 -195.442 168.835 -204.166 148.133C-194.986 143.545 -184.027 141.602 -173.469 142.686C-174.327 131.504 -175.185 120.322 -176.042 109.14C-176.334 105.324 -176.334 100.884 -172.885 98.4419C-169.874 96.3038 -165.393 96.6081 -161.944 95.024C-157.482 92.9796 -155.73 88.3523 -154.498 84.1463C-147.308 59.7768 -143.639 34.6503 -143.603 9.51611C-115.854 28.5638 -92.8953 52.6915 -76.7349 79.7999C-74.3807 83.7484 -71.9443 87.9855 -67.5095 90.2953C-63.0748 92.6051 -56.0212 91.7857 -54.2966 87.6032C-52.5263 83.288 -51.9332 74.9775 -47.8452 77.9272C-44.7609 88.3679 -41.6766 98.8086 -38.5924 109.249C-31.9129 107.993 -25.8539 104.419 -22.1126 99.5109C4.48676 128.523 9.57844 168.804 0.316566 204.808C-8.92706 240.812 -30.9365 273.406 -54.406 304.33Z" fill="#C96D00"/>
<path d="M-0.687012 353.327C5.70049 405.804 27.6918 456.837 62.6679 500.301C65.7978 490.867 70.0683 481.698 75.3882 473.005C89.8695 490.453 104.351 507.901 118.823 525.349C123.13 517.726 127.419 510.102 131.717 502.478C133.332 499.622 135.695 496.337 139.4 496.337C141.882 496.337 143.953 497.882 145.769 499.333C163.28 513.34 180.782 527.355 198.293 541.362C201.149 526.598 206.642 512.209 214.535 498.857C230.823 513.434 249.411 526.13 269.632 536.492C269.212 525.716 268.802 514.94 268.382 504.164C313.943 505.342 359.294 512.396 402.41 525.022C386.304 495.283 363.72 468.128 336.135 445.382C346.41 441.355 356.694 437.321 366.968 433.294C341.555 420.755 314.317 410.891 286.094 404.017C294.945 394.505 305.429 386.116 317.109 379.202C284.332 372.593 250.606 369.441 216.926 369.846C214.782 359.71 238.917 354.279 233.807 344.954C231.636 341.006 225.504 340.342 220.394 340.256C147.64 339.047 74.7585 343.456 2.93564 353.405L-0.687012 353.327Z" fill="#C96D00"/>
<path d="M28.8961 304.002C28.6041 271.127 35.4753 238.213 49.0624 207.461C51.7999 201.281 61.4177 194.453 65.3597 200.141C62.6404 179.096 66.8196 157.426 77.2951 138.23C84.9601 147.04 102.015 145.019 111.331 137.473C120.657 129.928 124.663 118.933 129.773 108.859C134.883 98.785 142.566 88.4066 154.903 85.3634C157.924 92.8701 162.76 99.8462 169.029 105.714C181.384 91.3017 193.73 76.8969 206.095 62.4765C209.699 58.2783 214.873 53.5574 220.758 54.9073C225.056 55.8905 227.629 59.8546 231.827 61.1343C236.791 62.6482 242.038 59.9873 246.381 57.4434C278.748 38.5284 311.105 19.6055 343.462 0.69043C347.45 33.9791 342.367 68.0402 328.762 99.4092C337.75 99.9633 346.884 98.7616 355.27 95.9212C350.443 124.403 330.696 150.786 302.482 166.47C299.014 168.398 295.264 170.317 293.357 173.462C289.935 179.104 294.306 186.361 300.766 189.513C307.236 192.658 315.038 192.783 322.475 192.83C318.998 220.118 283.748 234.437 253.49 243.629C266.347 253.945 279.204 264.268 292.061 274.584C250.989 297.424 198.274 304.315 151.098 292.992C159.238 300.436 167.359 307.881 175.498 315.325C131.963 326.921 72.8969 319.445 29.7265 306.897L28.8961 304.002Z" fill="#C96D00"/>
<path d="M145.358 426.31C171.93 437.071 199.789 444.687 228.25 450.696C236.015 462.705 246.263 474.199 259.074 482.478C263.892 485.592 268.582 478.623 263.819 475.541C254.703 469.65 247.121 461.675 240.906 453.263C261.73 457.313 282.827 460.653 303.924 463.86C309.827 464.757 312.373 457.016 306.415 456.111C285.482 452.927 264.814 449.556 244.492 445.514C258.49 439.709 273.674 436.759 289.205 434.683C295.164 433.887 292.636 426.139 286.714 426.935C267.113 429.557 247.896 433.7 230.96 442.705C203.138 436.673 176.037 429.096 149.894 418.726C174.047 413.451 198.721 411.492 223.77 410.993C229.81 410.868 229.838 402.838 223.77 402.955C194.387 403.541 165.37 406.077 137.201 413.42C127.984 409.378 118.887 405 109.953 400.123C92.2783 390.494 75.1507 379.866 57.357 370.268C90.2982 362.808 124.061 366.046 156.874 374.146C162.696 375.582 165.178 367.833 159.365 366.397C122.281 357.244 83.6096 354.092 46.5439 364.634C39.5815 361.138 32.4913 357.837 25.1822 354.872C4.45935 346.46 -17.3404 340.927 -39.8244 338.532C9.96164 324.564 56.9281 303.37 98.5016 275.606C136.142 282.068 175.453 279.383 212.464 271.323C218.322 270.043 215.84 262.294 209.973 263.574C176.986 270.761 141.946 273.617 108.174 268.966C131.352 252.485 152.248 233.929 171.994 214.476C200.373 216.091 228.141 213.22 254.849 204.581C260.452 202.771 258.025 194.999 252.358 196.833C228.807 204.449 204.589 207.445 179.714 206.774C189.834 196.544 199.707 186.127 209.471 175.67C216.187 168.468 222.812 161.195 229.382 153.884C253.298 154.048 276.476 149.818 298.065 140.868C303.513 138.613 298.75 131.684 293.32 133.931C275.39 141.36 256.318 145.136 236.636 145.776C261.346 117.895 284.962 89.3119 307.464 60.0888C310.795 55.758 302.664 51.7316 299.343 56.0311C278.492 83.124 256.674 109.663 233.907 135.601C236.472 122.054 239.419 108.586 244.803 95.5858C246.819 90.7009 237.749 88.6019 235.742 93.4477C228.414 111.145 225.604 129.702 222.109 148.141C222.054 148.422 222.045 148.687 222.045 148.944C215.712 155.998 209.306 163.029 202.819 169.99C193.566 179.908 184.194 189.794 174.613 199.533C175.006 176.576 179.331 153.907 187.352 131.91C189.158 126.963 180.088 124.848 178.291 129.78C168.956 155.405 164.494 182.069 165.287 208.904C145.541 228.389 124.654 247 101.394 263.418C99.332 229.606 98.383 194.648 117.217 163.895C120.018 159.323 111.906 155.257 109.096 159.838C88.2633 193.86 90.0428 232.322 92.3697 269.598C48.4875 298.907 -1.73652 320.74 -54.9353 334.224C-48.6299 321.833 -49.077 308.606 -50.9203 294.49C-52.654 281.155 -54.8805 267.85 -57.4355 254.6C-40.4904 228.334 -28.126 200.469 -22.2038 170.832C-21.191 165.776 -30.243 163.599 -31.2559 168.694C-36.3933 194.359 -46.3122 218.612 -60.018 241.678C-60.9305 237.378 -61.8429 233.079 -62.8284 228.795C-65.6481 216.435 -68.7961 204.129 -72.218 191.878C-61.6695 179.892 -55.1999 166.174 -54.9718 151.004C-54.8896 145.831 -64.2884 145.831 -64.3614 151.004C-64.5348 162.015 -68.4585 172.377 -75.1745 181.57C-78.9432 168.788 -83.0038 156.069 -87.4112 143.443C-82.064 133.915 -78.2406 124.068 -76.735 113.518C-76.0141 108.399 -85.4128 108.438 -86.1337 113.518C-87.028 119.791 -88.9898 125.862 -91.6361 131.723C-96.1712 119.347 -100.98 107.033 -106.127 94.8289C-108.171 89.9986 -117.25 92.0821 -115.188 96.9669C-109.576 110.279 -104.356 123.693 -99.4744 137.208C-112.925 133.907 -125.827 129.194 -137.243 122.132C-142.152 119.097 -146.851 126.065 -141.988 129.069C-128.392 137.489 -112.496 142.795 -96.2715 146.268C-91.5995 159.689 -87.2652 173.189 -83.3232 186.782C-103.398 187.321 -122.752 181.265 -137.635 169.428C-142.052 165.909 -148.713 171.574 -144.278 175.109C-127.178 188.717 -104.384 195.951 -81.0967 194.726C-79.0801 201.96 -77.1273 209.201 -75.3297 216.481C-72.5648 227.601 -70.0827 238.767 -67.8288 249.973C-94.3735 249.871 -118.774 239.961 -139.122 225.58C-143.749 222.31 -150.428 227.968 -145.765 231.269C-123.154 247.25 -95.9248 258.361 -66.2503 257.987C-65.0823 264.175 -63.9599 270.363 -62.9653 276.574C-59.6894 296.894 -54.0228 319.078 -67.5825 337.291C-99.2645 344.478 -131.877 348.731 -164.727 349.862C-170.75 350.065 -170.777 358.11 -164.727 357.899C-131.275 356.752 -98.1513 352.383 -65.9674 345.126C-65.648 345.18 -65.3013 345.211 -64.9363 345.211C-29.5131 345.25 4.35898 353.545 35.1741 368.371C37.3732 369.433 39.545 370.556 41.7259 371.657C51.9915 401.637 65.7793 430.782 87.9166 455.869C91.521 459.942 99.6787 455.947 96.0378 451.812C76.4556 429.603 63.5255 404.298 53.7982 377.962C75.8351 389.908 96.9321 403.166 119.361 414.567C123.559 416.697 127.811 418.702 132.091 420.645C141.763 439.826 153.69 458.491 170.416 473.863C174.54 477.664 181.174 471.967 177.068 468.183C163.754 455.924 153.717 441.402 145.358 426.31Z" fill="#603813"/>
</svg>
