<svg width="782" height="800" viewBox="0 0 782 800" fill="none" xmlns="http://www.w3.org/2000/svg">
<path d="M651.474 248.422C646.336 175.033 640.031 101.698 632.54 28.4568C602.19 47.8244 571.84 67.1921 541.481 86.5597C532.712 92.1546 522.319 98.0695 511.679 95.8456C503.786 94.1991 498.119 88.4481 493.018 83.0248C467.085 55.4247 441.161 27.8325 415.237 0.232422C396.448 74.2774 333.586 139.895 336.305 215.625C336.661 225.379 335.904 238.114 324.963 240.9C321.204 241.852 317.161 241.204 313.384 240.276C285.178 233.346 265.176 212.153 249.892 190.725C234.607 169.297 221.595 145.927 199.494 129.423C183.69 140.301 196.337 165.201 182.431 177.834C175.149 184.444 163.195 185.068 152.61 184.248C100.753 180.245 51.6055 152.684 0.222656 159.895C21.8398 186.441 43.4569 212.996 65.0649 239.55C71.9817 248.032 79.1995 257.521 77.922 267.798C76.8909 276.1 70.476 283.084 64.3075 289.569C53.6404 300.782 42.9733 311.988 32.3061 323.201C29.596 326.057 26.7034 329.545 27.844 333.095C29.5413 338.37 37.8907 338.862 44.2782 338.729C107.022 337.442 157.538 380.25 199.841 419.899C205.772 425.454 212.123 432.087 210.919 439.539C209.678 447.233 201.009 452.157 193.262 456.215C127.151 490.885 68.7241 536.237 21.9767 589.166C20.4528 590.891 18.8559 593.045 19.741 595.074C20.5897 597.017 23.245 597.789 25.5901 598.312C78.8984 610.29 133.822 616.946 188.919 618.109C193.965 618.218 199.768 618.6 202.715 622.112C205.909 625.935 203.874 631.21 201.748 635.541C191.464 656.469 181.171 677.398 170.888 698.326C218.912 695.111 259.747 667.901 305.645 655.377C309.816 654.238 314.378 653.231 318.475 654.534C326.14 656.969 327.682 665.545 327.591 672.536C326.98 717.772 309.359 762.734 277.969 799.144C353.798 782.008 428.112 754.97 486.676 710.366C545.241 665.763 586.622 601.839 586.513 534.77L591.121 531.641C667.059 520.084 737.039 482.129 781.633 428.31C757.443 421.795 731.984 418.705 706.607 419.212C737.431 335.514 753.364 247.821 753.692 160.066C718.378 184.483 680.291 215.149 655.27 247.556L651.474 248.422Z" fill="#C96F06"/>
<path d="M670.053 391.331C654.285 409.13 633.744 423.262 615.741 439.259C621.873 429.278 628.342 419.477 634.337 409.833C656.593 374.031 670.408 335.842 674.907 295.437C675.482 290.295 666.074 290.326 665.508 295.437C660.535 340.212 642.304 379.103 618.232 418.104C612.976 381.359 599.343 344.426 613.094 308.032C614.956 303.1 605.886 300.985 604.033 305.894C588.366 347.36 607.017 389.014 610.284 430.769C602.947 442.435 595.994 454.483 590.537 466.851C590.364 467.093 590.181 467.327 590.017 467.569C589.561 468.24 589.397 468.903 589.388 469.528C581.914 487.288 577.68 505.703 580.044 524.611C560.388 500.522 550.716 472.196 542.366 443.964C532.338 410.02 523.651 375.787 516.388 341.336C513.641 328.343 510.903 315.195 508.412 301.961C513.823 280.837 523.031 260.783 532.502 240.814C553.453 229.203 570.581 213.487 579.989 193.503C582.252 188.704 573.163 186.621 570.928 191.365C564.257 205.536 552.86 217.374 539.127 226.847C549.192 205.474 558.609 183.937 563.044 161.034C564.029 155.978 554.968 153.801 553.983 158.896C548.791 185.724 536.764 210.671 524.874 235.664C524.153 236.359 523.806 237.178 523.761 238.013C516.889 252.48 510.146 266.979 504.863 281.899C496.431 230.943 493.155 179.028 507.901 129.173C509.38 124.156 500.319 122.018 498.84 127.035C481.457 185.802 488.62 247.104 499.917 306.588C494.843 293.869 488.903 281.407 481.63 269.484C466.529 244.739 444.327 223.179 437.192 195.329C435.896 190.281 426.835 192.419 428.14 197.467C434.71 223.117 453.553 243.374 468.518 265.722C485.134 290.552 495.354 317.903 503.275 345.573C518.076 397.316 525.859 450.667 552.851 499.258C553.043 499.617 553.298 499.905 553.545 500.171C554.302 501.645 555.078 503.113 555.872 504.572C554.713 503.604 553.545 502.644 552.377 501.684C520.293 473.928 484.815 447.92 458.708 415.888C432.483 383.707 414.881 347.188 397.598 311.075C395.345 306.354 386.247 308.422 388.546 313.205C406.139 349.958 423.906 387.188 450.596 419.938C458.143 429.2 466.446 437.956 475.206 446.406C469.914 443.028 464.594 439.703 459.247 436.41C416.086 409.84 371.364 385.026 325.739 361.624C325.511 361.18 325.173 360.742 324.681 360.337C281.364 324.738 251.461 279.339 208.528 243.444C204.203 239.823 197.56 245.504 201.885 249.125C237.546 278.957 264.246 315.327 297.114 347.204C273.325 335.413 249.29 323.989 224.99 313.002C199.285 301.383 173.178 290.404 151.625 273.393C147.19 269.889 140.529 275.554 144.982 279.074C164.382 294.391 187.203 305.09 210.435 315.538C226.769 322.881 243.003 330.38 259.145 338.027C239.243 338.722 219.36 339.416 199.458 340.111C193.436 340.321 193.399 348.359 199.458 348.14C224.515 347.266 249.573 346.392 274.639 345.518C274.675 345.518 274.712 345.511 274.767 345.503C279.065 347.586 283.353 349.654 287.642 351.769C339.125 377.145 389.422 404.339 438.15 433.438C442.74 436.184 447.33 438.962 451.901 441.756C419.453 432.946 385.736 428.217 351.837 427.686C340.832 421.311 328.978 416.34 316.359 412.728C310.61 411.081 308.146 418.838 313.867 420.476C320.748 422.45 327.308 424.908 333.641 427.764C310.226 428.428 286.83 431.104 263.844 435.817C257.958 437.019 260.45 444.768 266.335 443.566C293.555 437.987 321.468 435.365 349.318 435.615C349.957 435.755 350.568 435.763 351.134 435.646C394.806 436.231 438.296 443.902 478.692 458.65C495.053 469.293 511.095 480.405 526.507 492.063C505.292 487.935 483.437 487.592 461.975 490.276C418.394 493.429 375.525 504.767 333.888 516.573C325.903 518.836 317.928 521.154 309.953 523.495C281.309 517.392 252.128 517.291 222.946 520.592C217.042 521.263 216.96 529.308 222.946 528.629C246.251 525.992 269.41 525.492 292.396 528.653C239.973 544.064 187.313 559.249 132.061 564.797C126.13 565.39 126.057 573.435 132.061 572.834C197.076 566.311 258.25 546.865 319.89 529.051C344.108 522.059 368.873 514.817 394.012 509.02C389.796 510.838 385.645 512.757 381.575 514.771C326.086 542.316 285.133 586.373 246.087 628.862C242.391 632.888 248.989 638.608 252.739 634.542C302.507 580.372 369.493 514.849 450.368 499.211C474.924 496.589 499.698 496.433 524.527 500.264C525.294 500.382 525.987 500.35 526.617 500.218C531.791 501.365 537.01 502.746 542.257 504.361C546.482 507.982 550.652 511.618 554.749 515.301C555.342 515.832 555.99 516.16 556.647 516.347C560.096 519.312 563.5 522.316 566.849 525.352C526.243 525.843 487.398 556.526 461.829 579.725C424.636 613.458 396.585 653.567 369.019 693.215C365.916 697.671 374.047 701.721 377.14 697.273C401.686 661.963 426.47 626.302 458.115 595.199C461.245 592.124 464.457 589.104 467.724 586.116C454.109 609.939 445.842 635.83 443.889 662.455C443.506 667.621 452.905 667.605 453.279 662.455C455.779 628.378 469.33 595.667 491.13 567.162C491.358 566.857 491.531 566.561 491.659 566.264C497.471 561.925 503.467 557.774 509.708 553.888C527.684 542.698 552.623 530.697 575.627 533.74C575.709 533.748 575.782 533.748 575.855 533.756C606.086 562.675 631.591 594.863 649.029 631.413C651.283 636.142 660.371 634.074 658.09 629.283C642.002 595.565 619.354 565.476 592.527 538.204C592.508 537.907 592.454 537.611 592.353 537.291C585.044 514.022 589.488 491.93 598.786 470.752C618.998 441.233 654.23 422.458 678.183 395.412C681.815 391.269 673.648 387.258 670.053 391.331Z" fill="#603813"/>
</svg>
