<svg width="594" height="853" viewBox="0 0 594 853" fill="none" xmlns="http://www.w3.org/2000/svg">
<path d="M268.367 785.463C264.771 761.312 237.615 745.698 213.078 733.345C181.761 717.575 150.444 701.797 119.127 686.026C106.361 679.596 93.1575 672.831 84.8447 662.336C76.5318 651.84 74.6247 636.484 84.5436 627.065C98.8698 613.464 129.283 618.325 140.553 602.758C151.84 587.159 133.116 568.611 116.207 557.312C90.9036 540.402 65.5818 523.5 40.2873 506.591C18.7614 492.209 -5.24647 471.905 2.15391 449.424C3.37666 445.71 5.67616 442.003 9.61816 440.123C13.0492 438.484 17.1919 438.461 21.1248 438.578C42.5685 439.225 67.1057 441.964 82.6638 429.323C100.494 414.825 94.6175 388.895 81.2038 371.252C67.7991 353.608 48.2717 339.055 39.7763 319.305C31.29 299.555 41.4279 271.417 65.9376 269.56C75.3729 268.842 84.5161 272.221 93.8875 273.485C113.908 276.192 135.726 267.983 145.754 252.923C162.8 227.321 143.573 196.17 129.776 169.179C125.049 159.948 120.897 150.084 121.919 140.049C122.932 130.006 130.479 119.815 141.967 117.615C150.554 115.968 159.505 118.918 168.256 118.177C192.666 116.093 200.924 89.9524 206.143 69.4533C210.633 51.8336 217.55 34.1203 231.237 20.4022C244.934 6.68406 266.596 -2.32868 287.246 1.32324C323.181 7.66727 337.096 45.8719 335.098 77.2097C334.176 91.6535 331.384 106.269 334.651 120.455C337.917 134.642 349.169 148.773 365.794 151.411C393.835 155.859 420.581 126.752 447.08 135.781C468.022 142.913 469.901 167.462 466.516 186.518C461.105 216.958 451.232 246.813 437.197 275.162C433.867 281.889 430.217 289.208 432.434 296.27C436.869 310.472 460.11 312.243 476.362 307.421C492.604 302.606 509.404 294.163 525.819 298.549C550.439 305.127 553.267 335.723 540.082 354.685C526.914 373.647 504.093 386.312 489.137 404.283C474.181 422.253 470.65 451.57 492.632 463.103C507.588 470.946 526.668 466.747 544.006 464.438C561.334 462.136 583.033 463.946 590.497 477.516C593.664 483.267 593.39 489.939 592.459 496.244C587.742 528.315 566.763 558.397 536.003 577.195C521.54 586.036 502.469 598.849 510.298 612.496C514.185 619.27 523.392 622.258 529.935 627.299C540.839 635.695 543.787 649.89 540.009 662.016C536.231 674.142 526.75 684.419 516.028 692.979C463.395 735.015 326.858 746.064 271.351 785.299L268.367 785.463Z" fill="#A67C52"/>
<path d="M221.364 596.75C246.156 619.543 272.071 642.656 286.553 671.629C285.22 688.266 283.35 704.824 280.795 721.274C273.914 765.565 259.652 808.92 230.945 846.656C227.642 851.002 235.772 855.037 239.066 850.714C278.413 799.002 290.732 738.043 295.075 677.248C295.431 676.982 295.76 676.67 296.043 676.272C337.945 616.375 417.661 584.811 457.281 523.329C460.201 518.795 452.089 514.737 449.169 519.271C412.03 576.898 339.478 608.298 296.024 661.524C296.617 649.991 296.982 638.489 297.256 627.089C298.032 593.207 297.512 559.325 296.006 525.483C317.276 500.793 346.075 481.074 368.331 456.837C389.473 433.802 407.842 409.105 423.592 383.112C426.366 378.532 418.263 374.459 415.471 379.055C398.471 407.131 378.423 433.771 355.017 458.273C336.567 477.602 313.964 494.043 295.404 513.216C293.022 467.075 288.889 420.989 283.76 375.013C308.626 332.087 356.733 301.49 372.994 254.577C374.709 249.607 365.639 247.484 363.933 252.447C349.296 294.694 307.786 323.636 282.127 360.741C281.862 358.4 281.589 356.058 281.315 353.718C275.174 301.615 267.901 249.622 260.638 197.637C259.926 192.565 250.527 192.503 251.239 197.637C259.041 253.477 266.843 309.348 273.267 365.321C244.815 328.895 214.62 293.523 182.719 259.236C178.96 255.186 172.344 260.906 176.076 264.917C210.122 301.514 242.169 339.399 272.226 378.477C272.938 379.406 273.896 379.929 274.891 380.163C277.902 407.552 280.603 434.965 282.72 462.424C284.107 480.317 285.394 498.343 286.461 516.423C245.882 478.71 205.304 440.989 164.734 403.276C160.637 399.46 153.994 405.157 158.082 408.957C200.358 448.254 242.634 487.551 284.901 526.84C285.585 527.48 286.343 527.831 287.109 527.987C289.363 570.429 290.175 613.175 287.657 655.547C274.06 634.486 255.309 616.414 236.137 598.591C207.019 571.522 176.916 545.256 146.812 518.99C142.569 515.291 135.935 520.972 140.16 524.671C167.48 548.502 194.792 572.325 221.364 596.75Z" fill="#603813"/>
</svg>
