<svg width="603" height="596" viewBox="0 0 603 596" fill="none" xmlns="http://www.w3.org/2000/svg">
<path d="M82.0172 517.996C34.111 427.213 -14.9359 329.384 5.51323 231.344C25.4787 229.76 45.426 228.184 65.3915 226.607C57.2155 201.38 68.7221 174.653 82.802 151.415C120.306 89.5357 177.839 36.6452 247.298 0.180664C253.932 13.7505 260.548 27.3204 267.182 40.8824C356.287 30.3558 446.342 25.7052 536.269 26.9849C548.378 74.1945 548.989 123.55 538.048 170.97C556.472 170.728 574.795 166.608 590.973 159.07C608.749 207.185 605.957 260.637 583.226 307.199C560.514 353.761 518.028 393.058 465.55 416.093C480.26 426.776 497.57 434.845 516.039 439.62C512.754 468.227 475.515 483.178 443.568 492.097C340.3 520.93 192.311 536.88 85.2566 521.078L82.0172 517.996Z" fill="#FFC075"/>
<path d="M405.571 465.839C411.375 464.427 408.902 456.671 403.071 458.091C313.81 479.862 219.868 481.984 129.44 464.326C141.923 446.105 155.163 428.243 168.86 410.678C252.919 419.855 337.417 416.819 421.412 408.618C427.344 408.041 427.417 400.003 421.412 400.581C339.36 408.587 256.834 411.654 174.7 403.242C182.118 393.847 189.656 384.522 197.266 375.275C202.184 369.29 207.221 363.367 212.24 357.437C303.161 365.716 393.846 355.205 484.165 346.419C490.105 345.841 490.178 337.804 484.165 338.381C395.944 346.973 307.368 357.171 218.564 349.922C235.755 329.876 253.54 310.212 271.79 290.867C352.528 302.806 433.019 300.629 513.858 290.189C519.816 289.416 517.289 281.675 511.367 282.44C433.695 292.475 356.123 294.691 278.551 283.72C291.39 270.267 304.503 257.009 317.844 243.923C389.666 254.855 462.137 250.767 534.07 242.48C540.028 241.793 537.491 234.052 531.569 234.731C462.986 242.628 393.599 246.623 325.061 236.846C340.884 221.504 357.054 206.413 373.543 191.595C422.06 198.641 471.244 201.442 520.364 198.009C526.35 197.587 526.405 189.55 520.364 189.971C473.89 193.218 427.344 190.9 381.381 184.556C393.791 173.538 406.438 162.723 419.213 152.024C448.121 158.798 477.832 160.35 507.698 161.115C513.748 161.271 513.739 153.234 507.698 153.078C480.478 152.383 453.514 151.033 427.07 145.454C435.164 138.759 443.321 132.126 451.552 125.556C470.112 128.747 488.855 130.854 507.808 129.184C513.766 128.661 513.83 120.616 507.808 121.147C491.693 122.567 475.816 121.225 460.02 118.775C471.728 109.512 483.535 100.344 495.507 91.3308C500.061 87.9129 493.39 82.2399 488.864 85.6499C476.482 94.9748 464.209 104.456 452.045 114.062C447.291 100.437 444.809 86.5317 443.623 72.2674C443.194 67.1406 433.795 67.1016 434.233 72.2674C435.583 88.6074 438.485 104.534 444.444 120.101C436.277 126.617 428.183 133.195 420.126 139.836C411.366 115.934 402.98 91.8926 398.08 67.1641C397.067 62.0764 388.006 64.2379 389.019 69.2944C394.202 95.4508 403.281 120.835 412.588 146.094C399.065 157.385 385.697 168.84 372.521 180.475C354.553 143.253 337.836 105.525 328.958 65.8453C327.826 60.7732 318.774 62.9191 319.897 67.9834C329.113 109.13 346.752 148.193 365.476 186.764C348.759 201.692 332.352 216.9 316.292 232.374C286.7 184.119 264.179 132.844 251.979 79.2746C250.82 74.2103 241.768 76.3485 242.918 81.4128C255.474 136.511 278.953 189.277 309.649 238.796C296.181 251.914 282.986 265.226 270.047 278.726C232.16 224.86 194.245 169.948 175.11 108.787C173.541 103.793 164.48 105.915 166.049 110.925C185.704 173.709 224.832 230.057 263.732 285.327C245.136 304.937 227.114 324.944 209.74 345.311C173.65 288.238 145.837 227.817 126.72 165.001C125.206 159.999 116.135 162.122 117.668 167.139C137.324 231.773 166.177 293.942 203.626 352.536C190.486 368.135 177.702 383.937 165.347 399.957C128.062 350.547 99.1994 296.876 81.4695 239.975C79.9092 234.981 70.8389 237.103 72.4084 242.113C90.7405 300.902 120.817 356.446 159.726 407.307C146.686 424.428 134.121 441.782 122.048 459.355C75.7208 401.112 44.6045 334.051 35.4065 263.868C34.7404 258.788 25.3326 258.726 26.0078 263.868C35.5891 336.953 67.9007 406.745 116.838 467.049C90.4485 506.229 67.8277 547.196 51.9593 590.379C50.1434 595.326 59.2137 597.441 61.0204 592.517C76.6059 550.114 98.807 510.045 124.558 471.59C217.286 490.115 313.92 488.196 405.571 465.839Z" fill="#C69C6D"/>
</svg>
