<svg width="849" height="762" viewBox="0 0 849 762" fill="none" xmlns="http://www.w3.org/2000/svg">
<path d="M349.003 371.885C239.923 383.933 125.085 332.627 74.3319 249.179C63.2633 230.974 55.0234 209.258 64.0024 190.225C72.5616 172.122 95.4198 161.057 118.178 159.395C140.926 157.741 163.501 164.046 184.142 172.395C267.919 206.269 336.32 293.135 350.883 371.385L349.003 371.885Z" fill="#854D1A"/>
<path d="M378.286 450.268C394.647 509.292 432.105 581.979 493.754 611.974C516.302 622.938 541.788 631.131 567.648 629.438C593.508 627.745 619.496 614.276 627.517 593.184C636.405 569.853 621.987 544.742 604.34 525.39C556.817 473.28 457.19 438.641 380.303 449.769L378.286 450.268Z" fill="#854D1A"/>
<path d="M244.459 529.042C203.369 529.276 161.787 527.544 122.348 517.688C82.91 507.833 45.4154 489.198 21.2068 460.802C8.55953 445.969 -0.355729 428.161 0.0275213 409.8C0.410771 391.439 11.3152 372.704 30.2952 364.12C47.3863 356.387 68.1914 357.667 86.8885 361.912C128.489 371.369 164.862 394.451 191.397 423.44C217.923 452.422 234.029 491.555 244.769 527.2L244.459 529.042Z" fill="#854D1A"/>
<path d="M293.168 565.21C287.547 617.156 314.502 689.234 354.953 728.282C367.263 740.166 380.96 751.653 398.115 757.723C415.26 763.802 436.64 763.428 450.766 753.127C471.352 738.122 468.468 710.178 459.152 688.462C435.053 632.364 360.793 578.264 293.661 561.644L293.168 565.21Z" fill="#854D1A"/>
<path d="M470.859 344.698C483.872 382.458 512.004 401.919 550.311 423.753C588.608 445.586 634.361 456.979 680.306 459.328C705.746 460.631 732.19 459.062 754.939 449.246C777.687 439.429 796.047 419.96 796.412 398.166C796.868 371.151 770.935 349.005 743.414 335.74C670.606 300.641 545.986 300.914 472.438 343.887L470.859 344.698Z" fill="#854D1A"/>
<path d="M424.404 277.754C388.807 247.446 355.902 213.815 335.882 174.416C315.853 135.017 309.766 89.0563 327.834 48.971C337.99 26.4118 358.494 4.80469 386.489 1.4493C399.638 -0.13476 413.116 2.52612 425.262 7.13003C477.092 26.7786 502.742 79.5207 500.561 127.963C498.371 176.406 461.323 235.726 424.404 277.754Z" fill="#854D1A"/>
<path d="M552.911 245.823C622.818 253.143 692.094 238.715 757.703 209.242C783.472 197.662 820.045 173.081 835.84 152.161C851.618 131.241 853.653 100.714 832.975 83.196C814.205 67.293 784.138 66.9574 758.159 71.0775C657 87.121 571.298 159.402 551.141 245.675L552.911 245.823Z" fill="#854D1A"/>
<path d="M754.711 110.242C700.39 142.181 646.498 174.666 592.313 206.784C540.383 237.568 489.073 269.35 442.07 305.573C442.016 305.62 441.952 305.659 441.897 305.706C421.749 240.619 412.441 172.707 420.426 105.552C421.639 95.3302 403.152 92.3728 401.929 102.696C393.334 175.126 403.8 248.032 426.394 317.988C404.065 336.13 383.004 355.412 363.951 376.044C355.474 354.008 328.765 333.672 312.833 318.862C276.689 285.261 237.114 254.524 195.139 226.354C185.658 219.987 173.385 232.168 182.929 238.567C217.121 261.516 249.715 286.135 280.175 312.674C296.171 326.603 311.546 341.046 326.165 356.036C336.485 366.625 352.8 381.264 346.44 396.129C338.702 405.54 331.366 415.193 324.549 425.158C299.374 461.926 283.423 501.949 268.896 542.417C232.442 496.471 184.161 459.429 129.375 429.387C119.237 423.831 111.316 438.423 121.39 443.94C177.628 474.778 226.346 513.943 261.769 562.51C260.565 565.936 259.36 569.354 258.156 572.779C237.187 632.185 212.613 692.528 160.308 737.459C151.767 744.786 166.103 755.196 174.589 747.9C232.725 697.959 256.048 632.685 279.253 567.255C288.953 563.977 305.086 576.494 310.981 580.965C321.903 589.252 331.703 598.561 340.4 608.596C356.825 627.558 368.541 648.588 376.224 671.202C379.61 681.166 397.34 675.829 393.982 665.927C383.579 635.307 365.566 607.231 340.527 583.563C329.13 572.795 306.309 552.467 285.193 550.649C295.943 520.693 307.267 490.978 322.551 462.964C325.717 457.143 329.075 451.439 332.579 445.82C401.756 461.13 463.669 495.043 508.646 542.643C516.193 550.641 531.824 541.691 524.214 533.646C477.247 483.924 413.892 448.372 342.079 431.392C347.736 423.214 353.704 415.247 360 407.475C361.159 406.742 362.163 405.743 362.902 404.338C363.057 404.034 363.176 403.722 363.331 403.418C384.701 377.683 409.366 354.07 436.121 332.088C507.086 383.527 596.073 406.383 688.19 410.285C700.253 410.792 698.665 394.764 686.73 394.257C600.362 390.597 516.694 368.701 449.945 321.023C492.422 287.774 539.288 258.16 585.826 230.248C645.457 194.486 705.245 158.841 765.269 123.554C775.224 117.702 764.694 104.39 754.711 110.242Z" fill="#603813"/>
</svg>
