<svg width="657" height="482" viewBox="0 0 657 482" fill="none" xmlns="http://www.w3.org/2000/svg">
<path d="M225.613 0.301132C217.135 -0.432372 214.818 10.0553 216.104 17.2655C223.632 59.7853 238.314 101.376 259.494 140.385C233.825 124.029 208.165 107.674 182.497 91.3181C171.757 84.4747 148.086 59.7853 148.716 72.8324C157.96 93.7294 168.682 114.135 180.79 133.939C124.142 101.798 68.4982 76.5701 66.9013 92.871C87.5238 121.954 112.618 148.711 141.325 172.246C155.651 183.989 170.999 195.07 185.709 206.58C149.519 199.768 109.752 200.064 74.4295 189.522C66.9561 187.29 56.6266 185.41 52.8306 191.356C49.3266 196.849 55.5316 203.092 61.3442 206.908C83.0161 221.117 107.307 232.12 129.855 245.299C135.403 248.538 140.878 251.948 146.161 255.553C107.024 252.705 67.4762 254.117 28.768 259.798C16.7412 261.569 2.39676 265.697 0.161133 275.959C41.7529 286.711 83.3446 297.464 124.936 308.225C156.025 316.262 187.251 324.346 216.643 336.168C241.499 346.164 264.868 358.766 290.154 367.92C307.144 374.068 325.413 378.602 343.717 379.437C348.873 388.887 359.878 396.511 371.685 400.131C388.923 405.414 407.747 404.517 426.034 405.227C509.254 408.465 584.745 445.734 656.449 482.003C637.88 447.38 593.222 430.158 558.383 406.436C536.894 391.805 518.425 373.928 504.098 353.89C490.438 334.772 480.337 313.523 462.771 296.902C452.889 287.554 439.594 279.922 425.55 276.536C417.831 249.49 404.964 223.528 387.536 200.017C356.219 157.802 310.904 124.006 281.339 80.8697C264.677 56.547 253.298 29.6415 234.637 6.41123C232.374 3.62547 229.555 0.644475 225.613 0.301132Z" fill="#C69C6D"/>
<path d="M462.753 296.902C452.871 287.554 439.576 279.922 425.532 276.536C426.919 281.42 428.169 286.344 429.219 291.299C432.677 307.554 434.192 324.713 427.631 340.249C421.07 355.785 389.488 372.594 370.408 377.759C361.593 379.382 352.651 379.843 343.699 379.437C348.855 388.887 359.86 396.511 371.667 400.131C388.904 405.414 407.729 404.517 426.016 405.227C509.236 408.465 584.727 445.734 656.431 482.003C637.862 447.38 593.204 430.158 558.365 406.436C536.876 391.805 518.407 373.928 504.08 353.889C490.42 334.779 480.319 313.523 462.753 296.902Z" fill="#361B09"/>
<path d="M225.613 0.301132C217.136 -0.432372 214.818 10.0553 216.105 17.2655C223.633 59.7853 238.315 101.376 259.494 140.385C260.124 141.54 260.744 142.702 261.374 143.857C270.07 159.511 280.08 176.693 274.55 193.361C251.291 176.373 215.84 153.838 180.791 133.947C124.143 101.806 68.4985 76.5779 66.9017 92.8789C87.5242 121.962 112.618 148.719 141.325 172.253C155.651 183.997 171 195.078 185.709 206.588C205.857 222.335 224.828 238.885 238.36 259.025C216.944 264.753 193.894 260.719 171.675 258.027C163.198 256.997 154.684 256.185 146.152 255.561C107.015 252.713 67.4674 254.125 28.7592 259.806C16.7324 261.577 2.38797 265.705 0.152344 275.966C41.7441 286.719 83.3358 297.472 124.928 308.233C156.016 316.27 187.242 324.354 216.634 336.176C241.49 346.172 264.859 358.774 290.145 367.927C307.136 374.076 325.404 378.61 343.709 379.445C352.651 379.851 361.603 379.383 370.417 377.767C389.507 372.602 421.089 355.793 427.64 340.257C434.201 324.721 432.686 307.562 429.228 291.307C428.179 286.352 426.929 281.429 425.542 276.544C417.822 249.498 404.956 223.536 387.527 200.025C356.21 157.81 310.895 124.014 281.33 80.8776C264.668 56.5548 253.289 29.6491 234.628 6.41885C232.374 3.62529 229.555 0.644475 225.613 0.301132Z" fill="#A67C52"/>
</svg>
