<svg width="966" height="688" viewBox="0 0 966 688" fill="none" xmlns="http://www.w3.org/2000/svg">
<g opacity="0.52">
<path d="M347.588 287.596C396.097 355.602 499.319 385.988 591.217 372.964C683.114 359.94 763.323 309.875 822.928 248.643C882.523 187.418 924.179 115.176 965.26 43.6749C858.059 26.1489 747.865 22.0834 639.296 31.6502C597.805 35.3021 556.113 41.0452 517.559 54.6385C419.676 89.1444 347.324 194.34 347.479 284.873L347.588 287.596Z" fill="#957552"/>
</g>
<g opacity="0.52">
<path d="M170.845 398.067C161.31 451.535 185.299 538.447 230.55 576.239C275.792 614.022 334.904 637.244 394.609 655.067C440.224 668.684 486.963 679.577 534.349 687.645C541.083 663.112 539.085 637.478 535.919 612.422C526.438 537.425 503.379 458.074 437.25 408.141C370.345 357.6 247.349 358.7 170.845 398.067Z" fill="#957552"/>
</g>
<g opacity="0.52">
<path d="M199.006 6.08692C227.111 66.047 255.617 127.56 257.77 192.132C259.924 256.696 192.983 334.798 128.25 368.071L122.931 368.594C82.2969 340.284 56.8562 299.114 37.5204 257.445C25.3567 231.234 15.0547 203.876 14.206 175.682C12.892 132.624 34.5364 90.0419 69.5308 59.0553C104.525 28.0686 152.067 8.38885 201.634 0.718262" fill="#957552"/>
</g>
<path d="M550.637 211.164C550.756 211.172 550.847 211.195 550.975 211.195C551.003 211.195 551.03 211.195 551.057 211.195C551.285 211.211 551.523 211.211 551.76 211.195C630.226 211.203 707.761 231.468 786.208 220.34C792.167 219.498 789.858 211.702 783.918 212.545C712.36 222.689 641.212 206.1 569.672 203.501C609.202 187.653 648.868 172.046 688.681 156.736C693.353 154.942 698.024 153.178 702.696 151.391C702.861 151.383 703.016 151.375 703.18 151.352C703.217 151.352 703.244 151.352 703.28 151.352C751.214 145.094 800.243 159.038 847.182 145.461C852.867 143.822 850.64 136.003 844.891 137.665C806.877 148.668 767.055 141.512 727.736 141.855C780.15 121.988 832.791 102.558 885.671 83.6043C891.228 81.6067 886.638 74.5916 881.108 76.5736C825.546 96.4953 770.258 116.94 715.207 137.884C738.713 109.402 769.026 85.6722 801.192 64.2991C805.964 61.1232 799.449 55.3409 794.704 58.4856C758.094 82.8083 723.967 110.268 699.147 143.994C653.695 161.387 608.426 179.124 563.33 197.212C600.816 144.844 655.1 102.153 712.113 65.5008C716.941 62.3951 710.398 56.6129 705.626 59.6874C644.315 99.0938 586.198 145.585 548.292 203.259C504.52 220.902 460.939 238.873 417.531 257.172C465.237 205.07 496.106 141.715 556.122 98.3681C560.748 95.0283 554.233 89.2304 549.625 92.5624C483.824 140.084 453.219 211.414 397 265.849C327.988 295.142 259.459 325.247 191.441 356.187C167.032 367.283 142.713 378.528 118.441 389.835C132.119 369.679 141.317 347.572 146.683 324.709C148.426 325.45 150.515 325.31 151.793 323.671C152.203 323.281 152.523 322.805 152.696 322.227C174.897 282.704 209.773 248.768 225.796 206.677C227.667 201.753 218.661 199.451 216.79 204.367C202.245 242.588 171.694 274.019 149.904 309.227C149.858 309.118 149.804 309.009 149.749 308.899C152.477 291.701 153.244 274.261 152.267 257.07C150.835 231.897 147.157 206.427 146.144 181.223C171.421 168.504 186.824 144.735 199.015 122.73C201.57 118.095 193.594 113.85 191.003 118.516C180.245 137.938 167.096 159.304 145.907 171.828C145.57 141.871 149.858 112.39 167.086 84.3612C169.897 79.7964 161.903 75.567 159.084 80.1397C145.022 103.011 138.872 127.31 136.901 152.132C129.628 135.933 123.989 119.195 121.443 101.957C120.677 96.8464 111.57 98.8362 112.318 103.916C115.804 127.365 125.011 149.877 136.107 171.422C136.125 171.445 136.144 171.461 136.153 171.484C136.116 194.278 138.762 217.305 141.326 239.888C143.416 258.186 143.735 276.805 141.901 295.213C141.71 294.877 141.509 294.542 141.317 294.206C133.817 281.058 125.823 268.143 118.058 255.112C101.879 227.949 87.1148 199.958 83.4648 169.299C82.8717 164.227 73.4639 163.978 74.0752 169.12C77.1595 195.019 87.2608 219.076 100.264 242.478C107.226 254.995 114.836 267.238 122.237 279.567C127.055 287.604 135.532 298.303 140.186 308.502C135.112 340.261 123.067 370.951 101.487 397.724C68.6002 413.135 35.8323 428.718 3.18301 444.489C-2.08212 447.032 2.45294 454.079 7.73632 451.519C40.0662 435.897 72.5331 420.478 105.1 405.23C106.086 405.106 107.035 404.7 107.829 403.951C111.178 402.382 114.536 400.814 117.894 399.245C118.076 399.214 118.231 399.191 118.414 399.136C147.988 390.365 177.516 395.25 205.512 404.474C205.585 404.52 205.64 404.583 205.722 404.637C220.13 413.791 226.043 431.972 231.837 445.729C237.851 460.001 243.198 474.476 249.102 488.78C259.951 515.077 272.936 540.476 293.696 562.24C297.528 566.25 304.299 560.679 300.494 556.691C275.318 530.309 262.579 498.151 250.042 466.314C243.508 449.748 237.696 427.907 225.486 411.77C228.744 413.065 231.983 414.368 235.186 415.71C270.318 430.373 302.812 449.615 332.103 471.699C335.908 474.57 339.658 477.488 343.354 480.454C348.546 491.737 349.605 503.754 352.269 515.568C354.806 526.805 358.912 537.808 363.374 548.584C372.581 570.815 384.581 591.993 398.943 612.118C402.082 616.519 410.322 612.656 407.156 608.224C391.269 585.954 378.23 562.411 368.904 537.542C363.347 522.763 361.485 507.063 357.215 492.026C406.307 534.343 445.472 584.401 479.444 636.362C482.391 640.873 490.622 636.995 487.657 632.461C452.243 578.283 411.043 526.009 359.195 482.412C394.883 484.995 429.813 491.363 459.99 508.982C464.999 511.909 469.9 505.05 464.917 502.139C430.397 481.983 389.526 475.858 348.555 473.704C341.52 468.101 334.302 462.631 326.856 457.364C299.654 438.121 270.08 421.383 238.325 408.196C283.686 410.545 327.997 419.893 372.006 429.545C377.856 430.833 380.566 423.139 374.707 421.851C322.622 410.42 270.044 399.401 215.942 399.589C214.117 398.941 212.292 398.317 210.448 397.708C209.801 397.334 209.162 397.139 208.55 397.076C187.937 390.326 166.731 385.707 145.159 386.604C230.168 347.299 315.979 309.258 402.539 272.505C499.474 284.031 595.386 313.238 694.164 298.732C700.123 297.858 697.814 290.07 691.883 290.936C599.146 304.553 508.179 278.709 417.148 266.317C461.431 247.597 505.934 229.205 550.637 211.164Z" fill="#6B4624"/>
</svg>
