<svg width="934" height="789" viewBox="0 0 934 789" fill="none" xmlns="http://www.w3.org/2000/svg">
<path d="M573.739 110.841C561.1 83.5529 517.948 52.1526 487.334 38.8871C456.72 25.6216 422.702 19.2777 388.884 14.2992C337.018 6.65983 284.567 1.93099 231.989 0.144043C239.846 24.4824 247.894 49.1875 263.306 70.7322C278.709 92.2769 302.717 110.63 331.753 115.265C268.015 100.049 201.603 131.129 152.154 168.733C102.706 206.345 60.0285 252.4 0.606445 277.307C97.0668 298.142 197.916 271.658 292.561 245.431C226.843 275.591 170.012 319.796 128.703 372.897C87.4855 425.873 59.9554 488.962 1.62844 528.47C116.01 525.926 229.708 502.673 333.067 460.691C279.704 495.619 265.459 559.363 267.695 616.787C269.931 674.212 284.577 732.065 272.787 788.63C337.328 761.81 403.092 734.273 454.338 691.324C505.584 648.375 540.697 586.534 528.287 526.098C537.713 563.522 555.498 603.943 589.662 632.378C623.826 660.813 663.912 684.551 691.871 717.566C708.04 666.127 724.301 614.329 729.055 561.213C733.809 508.104 726.437 453.013 697.547 405.819C741.465 464.484 809.848 509.446 887.429 530.671C915.881 415.386 862.162 288.138 754.176 214.967C817.769 222.053 884.5 205.112 933.282 169.506C846.75 94.5321 688.869 73.3307 573.739 110.841Z" fill="#FBB03B"/>
<path d="M834.978 182.475C833.317 179.533 831.173 177.254 828.673 175.537C828.718 174.281 828.07 173.017 826.4 172.198C789.709 154.18 747.478 159.908 708.141 167.422C681.833 172.447 633.389 182.233 601.615 172.065C599.243 169.935 597.172 167.625 595.347 165.112C595.337 164.012 595.392 162.982 595.529 162.038C604.818 161.944 614.053 160.75 620.249 159.72C626.873 158.612 633.471 156.989 640.077 155.077C641.181 154.914 642.285 154.75 643.362 154.586C644.567 154.398 645.397 153.922 645.945 153.306C648.582 152.487 651.21 151.636 653.847 150.754C658.747 149.631 663.611 148.367 668.465 147.087C679.351 144.215 690.228 141.032 701.479 139.362C703.441 139.065 705.312 138.917 707.146 138.831C707.904 138.972 708.697 138.964 709.491 138.769C718.908 138.667 727.139 140.649 737.158 140.969C744.075 141.188 750.718 137.177 750.097 132.237C751.512 130.138 751.01 127.111 747.469 126.439C746.758 126.299 746.055 126.213 745.352 126.096C738.81 121.867 729.174 122.6 720.459 125.152C703.058 126.572 686.286 131.878 669.432 137.614C666.686 138.55 659.97 140.665 651.292 143.076C648.272 143.755 645.242 144.387 642.167 144.902C630.633 146.853 620.075 146.057 608.523 145.979C607.966 145.979 607.419 145.987 606.862 145.994C597.144 142.702 590.556 135.515 590.738 121.953C590.966 105.433 593.74 88.6563 596.469 72.3319C596.551 71.8637 596.524 71.4423 596.46 71.0287C596.907 68.6175 597.317 66.2141 597.619 63.8107C598.285 58.6059 598.193 51.9342 590.656 50.4125C584.451 49.1562 581.769 52.8861 580.09 57.0687C576.385 66.2843 575.445 77.3883 574.797 87.8135C574.678 88.625 574.605 89.4366 574.514 90.2559C573.976 90.8411 573.611 91.5902 573.556 92.5032C572.434 106.807 567.743 123.092 552.441 129.623C550.634 129.561 548.846 129.397 547.094 129.171C531.983 123.396 519.28 113.791 506.177 104.622C489.223 92.7608 471.383 81.8596 452.613 72.1914C419.772 55.2896 376.894 35.165 340.266 55.9294C337.629 57.4276 337.255 60.2135 339.317 62.2423C345.623 68.4459 353.625 67.6421 362.604 67.2129C364.11 67.1427 365.588 67.1271 367.085 67.1115C400.564 73.3775 434.053 80.6189 464.795 93.7517C466.182 94.3448 467.533 94.9847 468.883 95.609C472.506 97.7392 476.11 99.9163 479.632 102.21C486.878 106.924 494.068 112.292 501.478 117.403C486.257 112.206 469.075 109.522 454.703 105.87C436.727 101.305 418.321 95.0783 399.935 91.957C394.122 90.9738 386.539 90.2091 383.537 95.8898C379.212 104.091 389.395 109.975 402.334 114.048C411.049 117.911 420.521 119.471 430.293 120.244C434.482 120.907 437.822 121.367 439.61 121.625C468.5 125.878 499.625 128.109 523.314 143.349C509.462 143.146 495.601 143.053 481.731 143.17C364.694 137.887 247.091 165.37 149.462 221.444C147.884 222.349 146.515 224.284 147.309 225.978C153.204 238.564 170.778 228.28 179.995 223.957C231.934 211.339 278.636 187.102 328.942 170.426C329.973 170.083 331.032 169.786 332.072 169.459C354.109 164.87 376.429 161.273 398.931 158.644C401.249 158.651 403.566 158.644 405.911 158.714C407.454 158.753 408.603 158.261 409.361 157.496C431.945 155.179 454.694 153.844 477.497 153.54C467.113 156.396 456.838 159.689 446.636 163.208C429.043 167.328 411.697 172.557 394.533 177.941C371.647 185.12 348.78 192.556 325.082 197.535C317.089 199.212 295.654 201.218 300.864 213.071C305.482 223.598 327.135 215.022 334.691 212.9C355.049 207.195 374.302 199.002 393.684 191.277C428.879 177.254 465.188 167.609 503.002 163.138C511.734 162.779 520.54 162.935 529.418 163.684C527.456 165.612 525.513 167.555 523.569 169.506C473.218 205.916 406.705 225.275 350.906 254.655C321.98 269.886 294.787 287.553 269.794 307.249C237.838 329.277 207.288 354.169 189.576 385.889C188.052 386.123 186.674 386.982 186.127 388.644C183.836 395.644 173.653 413.271 187.933 416.26C203.263 419.467 212.48 393.622 218.092 385.796C243.56 350.229 276.93 319.281 315.921 294.272C316.605 293.827 317.08 293.296 317.399 292.727C373.162 260.749 437.667 235.615 492.271 202.217C463.947 232.844 436.38 264.931 407.709 296.019C391.421 312.43 375.124 328.832 358.27 344.821C356.701 346.304 355.103 347.771 353.525 349.253C327.026 372.023 299.651 394.145 270.971 414.808C268.735 416.424 266.482 418.015 264.219 419.599C225.045 441.605 182.386 458.108 136.989 468.697C135.547 469.033 133.95 470.165 133.713 471.507C132.928 475.736 134.543 478.218 137.737 479.458C138.604 480.223 139.818 480.676 141.278 480.558C142.3 481.604 143.887 482.252 145.876 481.885C188.7 474.058 226.979 455.44 262.038 432.35C304.879 406.81 342.283 374.778 377.168 340.038C407.162 313.725 436.07 286.515 463.664 258.338C475.271 246.485 486.275 234.171 497.672 222.154C499.762 220.351 501.824 218.526 503.951 216.746C510.603 211.159 518.724 202.708 527.767 197.433C528.46 197.613 529.227 197.683 530.066 197.574C532.749 197.223 535.204 197.223 537.503 197.488C537.631 200.485 537.804 203.489 538.051 206.485C529.053 239.602 514.253 271.229 493.731 300.6C470.389 333.99 441.38 364.079 414.525 395.386C388.172 426.115 363.991 458.327 349.099 494.456C333.404 532.551 327.975 573.159 332.145 613.33C332.355 615.359 333.788 616.585 335.458 617.014C336.945 617.872 339.071 617.981 340.659 617.263C342.246 616.553 343.56 615.578 344.683 614.454C347.147 614.595 349.765 613.315 349.838 610.6C351.134 565.466 354.301 518.584 377.213 477.109C398.949 437.742 436.909 407.668 467.496 373.537C493.913 344.064 515.165 311.743 531.572 277.674C509.508 424.921 477.388 581.361 347.53 688.632C345.458 690.341 345.768 693.798 348.479 694.945C367.55 703.021 384.541 680.212 395.016 669.654C408.914 655.64 421.543 640.72 433.049 625.199C443.89 613.268 453.845 600.752 462.441 587.369C487.361 548.579 501.332 505.521 511.205 462.299C529.336 400.427 538.461 337.01 546.756 273.554C548.417 263.589 550.05 253.617 551.702 243.652C552.286 254.889 552.751 266.125 553.034 277.378C553.034 277.417 553.043 277.448 553.052 277.487C551.875 301.388 551.245 325.313 551.665 349.206C550.844 361.941 550.643 374.661 551.455 387.341C552.742 407.091 555.853 426.677 560.635 445.928C565.398 471.99 572.342 497.772 582.352 522.75C592.344 547.69 603.824 575.469 628.005 592.909C631.536 596.163 635.305 599.253 639.329 602.172C641.327 603.623 643.983 603.748 645.981 602.172C649.878 599.097 649.877 595.945 648.125 591.708C645.47 585.254 638.754 578.778 633.024 572.871C629.994 568.61 626.444 564.451 623.497 560.12C613.204 544.966 604.435 529.063 597.153 512.677C583.365 481.627 574.623 448.979 569.878 416.041C564.823 380.997 564.239 345.765 566.146 310.573C566.448 311.743 566.703 312.914 567.022 314.084C581.239 366.381 617.265 411.609 634.967 462.829C634.338 463.649 634.109 464.718 634.63 465.974C636.299 470.008 637.96 474.035 639.63 478.061C640.524 480.215 643.946 482.174 646.529 480.465C647.122 480.075 647.633 479.63 648.18 479.208C649.64 478.904 650.991 478.022 651.666 476.501C651.867 476.056 651.976 475.635 652.15 475.198C653.29 473.606 654.194 471.881 654.668 469.938C655.024 468.487 654.513 467.293 653.61 466.427C653.363 461.269 651.392 456.251 649.029 450.883C643.855 439.123 638.207 427.512 632.64 415.893C622.238 394.2 611.671 372.546 602.455 350.455C589.105 318.43 578.885 285.321 576.147 251.65C576.111 248.607 576.12 245.556 576.202 242.497C576.239 241.608 575.965 240.882 575.518 240.297C575.372 235.365 575.427 230.426 575.636 225.478C583.639 239.118 594.297 251.151 606.378 262.239C619.153 276.145 633.79 288.864 646.529 300.132C655.17 307.771 665.189 315.231 675.537 322.816C702.802 346.717 725.798 373.537 744.194 403.096C744.321 403.291 744.476 403.455 744.641 403.626C747.725 408.332 752.817 412.023 759.076 413.802C761.604 414.52 764.059 412.959 764.862 410.992C766.933 405.936 766.294 400.833 763.566 396.057C763.228 395.464 762.799 395.019 762.316 394.692C748.847 350.892 699.727 323.698 662.926 294.147C634.931 271.658 609.016 245.97 591.541 216.957C611.279 235.911 638.617 250.948 663.392 262.903C714.838 287.733 769.999 316.48 796.68 362.051C800.431 370.587 804.181 379.124 807.932 387.653C808.397 389.214 808.862 390.767 809.264 392.366C809.538 393.443 810.195 394.169 810.988 394.637C811.6 396.034 812.22 397.431 812.823 398.827C814.21 401.98 819.21 402.932 821.409 399.787C834.686 380.88 819.895 360.49 806.025 345.235C786.99 324.283 763.831 306.531 739.065 290.667C713.634 274.373 686.524 260.132 659.431 245.969C634.967 233.18 605.056 218.955 593.303 196.224C592.947 195.272 592.6 194.328 592.244 193.376C591.021 189.458 589.999 185.495 589.269 181.452C620.157 192.01 652.925 192.736 687.062 187.617C711.654 183.926 736.191 178.339 761.312 178.315C784.234 178.292 805.276 189.045 827.751 187.796C828.381 187.984 829.029 188.171 829.658 188.358C833.874 189.622 836.602 185.37 834.978 182.475Z" fill="#C96D00"/>
</svg>
