<svg width="953" height="407" viewBox="0 0 953 407" fill="none" xmlns="http://www.w3.org/2000/svg">
<path d="M44.3582 228.665C13.6982 216.179 -8.89526 184.124 4.94737 157.608C13.4975 141.237 33.5451 131.085 53.976 127.059C73.4944 123.219 98.7888 120.878 104.319 104.421C107.531 94.8625 101.809 85.0226 97.8124 75.6744C93.8157 66.3339 92.2645 54.2622 101.171 47.8791C114.174 38.5699 132.679 50.3918 144.825 60.5205C161.897 74.7614 181.306 86.9656 202.303 96.6572C210.406 100.395 222.743 102.759 226.904 95.7442C228.346 93.3096 228.181 90.4146 227.652 87.7225C223.655 67.2234 202.567 52.3036 194.081 32.8267C189.847 23.096 189.975 10.291 199.976 4.39953C204 2.02734 209.001 1.20018 213.882 0.864639C254.571 -1.95233 289.647 24.5943 314.96 51.968C328.045 66.1075 341.678 81.9715 362.1 86.4428C368.524 87.8473 376.855 87.2622 379.72 82.1511C381.253 79.4121 380.687 76.2049 380.094 73.2085C377.229 58.7256 374.337 44.2429 371.471 29.7601C369.911 21.9412 368.843 12.7412 375.459 7.16965C386.701 -2.29568 405.042 8.55082 414.404 19.4129C435.109 43.4703 450.831 70.6412 460.641 99.3103C463.369 107.316 465.742 115.603 471.198 122.517C476.655 129.431 486.099 134.768 495.735 133.535C513.566 131.257 518.055 110.875 515.354 95.635C512.662 80.3953 508.182 62.323 521.103 51.578C531.058 43.2987 547.912 43.8761 559.711 50.1265C571.509 56.3769 579.138 67.0128 585.06 77.7422C599.35 103.657 606.513 132.732 626.186 155.923C630.521 161.034 636.078 166.122 643.387 167.019C654.912 168.424 664.457 158.599 666.93 148.884C669.402 139.169 667.45 128.963 669.448 119.162C671.446 109.361 679.75 99.045 691.375 99.2245C699.926 99.3493 706.833 105.022 712.235 110.687C730.54 129.876 742.375 153.137 761.09 172.029C780.07 191.186 805.922 205.286 834.246 211.919C819.755 215.805 805.265 219.683 790.774 223.561C774.404 227.947 757.796 232.426 743.47 240.51C709.799 259.519 694.624 294.594 669.001 321.25C655.815 334.968 637.748 347.212 616.979 347.321C596.211 347.43 575.287 329.943 581.684 313.041C583.308 308.757 586.474 304.676 586.036 300.189C585.334 293.026 575.141 288.835 566.929 290.412C558.716 291.98 552.365 297.435 546.854 302.874C525.346 324.067 508.83 348.757 486.647 369.451C464.473 390.145 434.279 407.195 401.474 406.134C395.881 405.954 390.077 405.158 385.515 402.38C373.926 395.295 376.335 379.868 382.713 368.983C395.543 347.055 418.994 330.115 428.393 306.955C430.382 302.062 431.614 296.381 428.566 291.894C422.672 283.217 407.196 285.987 396.994 290.958C369.601 304.309 348.303 324.964 324.295 342.451C300.296 359.939 270.877 374.991 239.405 373.267C223.299 372.385 205.679 365.167 201.856 351.761C197.594 336.841 211.975 323.029 226.037 313.494C240.108 303.958 256.469 293.556 258.312 278.285C258.604 275.804 258.431 273.112 256.706 271.107C252.837 266.581 244.588 268.227 238.675 270.646C197.357 287.556 161.916 320.649 116.099 320.166C109.994 320.103 102.95 318.878 100.112 314.258C97.7851 310.474 93.834 299.198 95.7959 295.273C101.307 284.255 106.527 279.081 118.289 272.574C126.045 268.282 134.531 264.965 141.704 259.987C172.537 238.629 73.1659 241.368 44.3582 228.665Z" fill="#603813"/>
<path d="M947.186 190.998C868.447 209.742 788.156 211.817 708.038 205.864C703.421 192.887 696.623 180.565 692.298 167.503C690.655 162.532 681.585 164.647 683.236 169.633C687.233 181.72 693.365 193.152 697.918 205.068C668.363 202.625 638.816 199.145 609.415 195.048C605.145 194.455 600.883 193.948 596.631 193.417C582.031 165.427 570.15 136.352 554.547 108.752C551.919 104.102 543.806 108.167 546.425 112.81C561.034 138.654 572.404 165.778 585.772 192.099C585.535 192.075 585.298 192.052 585.06 192.021C584.111 191.646 583.062 191.513 582.077 191.709C545.796 187.784 509.615 186.106 473.042 186.473C459.272 148.72 440.53 112.646 416.905 78.6318C413.821 74.1918 405.69 78.2261 408.793 82.6895C431.587 115.51 449.746 150.219 463.214 186.582C461.353 186.621 459.482 186.691 457.63 186.746C457.539 186.746 457.456 186.746 457.383 186.754C452.94 186.871 448.496 186.956 444.043 187.128C420.874 188.018 397.733 189.399 374.592 190.757C347.847 149.415 314.103 111.671 275.668 77.7812C271.452 74.059 264.819 79.7477 269.025 83.462C305.845 115.939 338.175 151.951 364.172 191.365C334.114 193.105 304.047 194.674 273.907 194.947C270.485 194.978 267.063 194.978 263.642 194.978C235.245 167.878 203.617 143.563 169.909 121.378C165.128 118.225 160.438 125.202 165.164 128.315C195.788 148.471 224.596 170.593 250.812 194.869C195.697 193.987 140.856 187.752 89.208 170.32C83.5962 168.424 81.1414 176.188 86.7168 178.068C142.553 196.921 200.889 202.539 259.782 202.813C260.849 203.234 261.972 203.179 262.984 202.813C268.514 202.82 274.062 202.789 279.601 202.711C250.748 232.73 212.596 254.774 173.35 273.9C168.094 276.46 172.82 283.404 178.095 280.837C220.718 260.065 261.369 235.89 291.683 202.485C318.191 201.861 344.744 200.44 371.17 198.942C371.7 198.997 372.238 198.958 372.767 198.856C387.431 198.021 402.068 197.171 416.631 196.414C427.025 195.875 437.391 195.438 447.747 195.119C399.859 245.075 343.823 289.881 277.192 320.954C271.881 323.427 276.617 330.372 281.937 327.891C351.899 295.265 410.517 247.658 460.121 194.783C498.875 193.932 537.41 194.877 576.008 198.911C542.073 252.488 498.583 300.642 445.822 341.726C441.342 345.214 447.994 350.887 452.465 347.407C506.759 305.136 551.435 255.36 585.991 200.027C589.952 200.495 593.894 200.994 597.854 201.525C627.638 205.567 657.303 209.445 687.087 212.356C662.477 239.113 640.458 267.533 615.419 294.025C611.651 298.012 618.266 303.732 622.071 299.705C648.552 271.676 671.639 241.47 698.028 213.378C720.622 215.391 743.306 216.804 766.192 217.186C828.05 218.208 890.009 212.941 949.714 198.724C955.499 197.358 953.035 189.609 947.186 190.998Z" fill="#AD8660"/>
</svg>
