<svg width="630" height="545" viewBox="0 0 630 545" fill="none" xmlns="http://www.w3.org/2000/svg">
<path d="M258.095 307.146C215.135 295.762 157.647 288.629 123.182 263.909C119.769 274.256 120.235 285.516 124.496 295.629C83.169 298.961 41.8236 302.285 0.487305 305.617C2.57693 343.728 34.4506 377.149 73.4508 395.674C112.451 414.199 157.802 420.13 202.25 423.415C184.119 456.22 172.612 491.693 168.396 527.799C200.644 525.583 233.421 523.273 263.634 513.339C293.838 503.414 343.596 472.326 354.473 446.271C382.286 457.655 411.039 468.44 441.645 471.577C472.259 474.721 505.392 469.267 528.186 451.522C530.54 449.688 532.913 447.496 533.178 444.78C533.606 440.434 528.688 437.25 524.354 434.971C497.617 420.926 470.881 406.872 444.145 392.818C487.607 377.891 531.325 361.574 566.931 335.574C602.555 309.566 629.483 272.196 629.419 232.15C602.792 236.192 576.156 240.226 549.384 243.542C535.559 245.259 520.558 246.609 508.44 240.663C496.312 234.725 490.646 218.392 501.395 210.761C455.515 225.501 413.184 248.287 377.788 277.283C371.501 215.474 365.862 153.61 360.879 91.7069C348.761 97.7623 336.652 103.818 324.534 109.865C321.268 111.496 317.107 113.142 313.904 111.402C312.07 110.403 311.157 108.562 310.363 106.83C293.911 71.2624 277.468 35.6951 261.015 0.12793C230.948 52.6437 210.654 109.248 201.137 167.156C187.303 166.829 173.479 166.501 159.646 166.173C164.491 222.794 202.113 276.659 258.095 307.146Z" fill="#E6D2BE"/>
<path d="M544.282 280.053C496.476 297.665 442.867 312.616 401.12 340.053C416.213 318.797 438.213 301.684 463.599 289.136C468.818 286.546 464.101 279.601 458.845 282.199C425.128 298.883 397.771 323.065 382.478 353.849C365.003 368.573 350.23 386.786 345.339 406.544C336.752 383.165 326.66 360.021 316.458 336.908C316.549 336.744 316.641 336.596 316.695 336.416C329.16 301.676 331.195 265.657 322.973 230.011C321.805 224.947 312.744 227.085 313.912 232.149C321.021 262.996 319.908 294.052 310.883 324.298C303.857 308.364 296.922 292.437 290.507 276.448C290.872 275.27 290.598 273.943 289.302 272.812C289.165 272.695 289.047 272.578 288.91 272.469C284.156 260.413 279.721 248.31 275.806 236.145C275.898 236.02 275.998 235.918 276.08 235.786C288.253 215.349 295.16 193.633 296.794 170.746C297.15 165.58 287.76 165.596 287.395 170.746C286.063 189.474 280.989 207.265 272.147 224.229C260.276 183.395 255.001 141.741 263.734 98.2614C264.747 93.2049 255.695 91.0277 254.673 96.1232C243.212 153.18 255.494 206.968 275.177 259.788C250.129 235.356 230.026 207.546 222.288 175.186C221.084 170.121 212.023 172.259 213.236 177.316C222.635 216.722 249.955 249.886 282.322 278.212C300.289 322.823 322.198 366.943 338.121 411.967C329.516 404.203 318.977 397.906 307.58 392.623C307.023 392.03 306.184 391.577 304.97 391.429C304.952 391.429 304.933 391.429 304.915 391.421C287.714 383.782 268.789 378.343 251.607 373.661C241.451 370.899 231.222 368.308 220.965 365.811C200.425 350.431 179.008 335.55 155.174 324.056C149.9 321.512 145.155 328.449 150.42 330.993C168.04 339.483 184.255 349.822 199.786 360.864C189.064 358.46 178.315 356.166 167.52 354.059C139.57 348.62 109.093 345.702 86.3531 329.385C81.7541 326.085 75.0746 331.742 79.7101 335.066C96.1443 346.865 115.371 352.343 136.039 356.4C162.702 361.636 189.347 366.482 215.7 372.834C215.992 372.904 216.293 372.982 216.594 373.052C190.606 378.796 163.843 380.59 136.942 381.262C130.911 381.418 130.883 389.447 136.942 389.299C169.528 388.487 202.067 386.139 233.174 377.298C233.384 377.243 233.558 377.149 233.749 377.079C249.572 380.793 266.864 385.03 283.188 390.735C273.187 391.218 263.25 392.67 253.386 394.589C247.492 395.736 249.983 403.485 255.877 402.338C271.107 399.381 286.839 397.242 302.451 399.17C302.953 399.232 303.41 399.217 303.866 399.17C318.311 406.068 330.858 414.714 339.344 425.919C302.597 419.474 273.927 447.425 245.822 464.522C240.94 467.495 245.63 474.463 250.567 471.467C278.608 454.401 307.379 424.062 345.366 435.775C345.923 436.922 346.434 438.1 346.918 439.302C347.638 441.799 348.332 444.312 349.007 446.817C349.016 447.488 349.19 448.065 349.482 448.549C357.347 478.529 361.472 509.063 359.035 540.557C358.634 545.723 368.033 545.699 368.434 540.557C370.907 508.564 366.536 477.538 358.333 447.066C358.351 446.926 358.397 446.793 358.397 446.645C358.899 433.169 364.401 416.797 379.567 410.75C393.072 418.413 406.193 426.551 419.744 434.16C424.818 437.008 429.526 430.055 424.498 427.222C413.229 420.894 402.252 414.199 391.119 407.714C404.159 405.764 417.892 408.097 430.585 410.968C436.443 412.295 438.934 404.546 433.085 403.22C415.811 399.318 396.01 396.595 378.882 402.112C378.691 402.151 378.526 402.213 378.353 402.276C375.515 403.22 372.759 404.367 370.095 405.795C362.01 410.149 356.681 417.531 353.387 425.654C350.485 400.645 367.503 377.259 389.522 359.069C389.568 359.038 389.604 359.007 389.641 358.968C399.906 350.509 411.24 343.166 422.126 337.321C431.013 332.546 440.212 328.168 449.61 324.048C449.711 324.056 449.802 324.079 449.893 324.087C477.305 325.702 504.424 322.768 529.928 313.802C535.44 311.859 533.022 304.087 527.428 306.054C508.275 312.788 488.355 315.995 467.988 316.393C494.66 305.827 522.391 296.815 549.027 286.99C554.566 284.954 549.775 278.032 544.282 280.053Z" fill="#C69C6D"/>
</svg>
