<svg width="575" height="519" viewBox="0 0 575 519" fill="none" xmlns="http://www.w3.org/2000/svg">
<path d="M354.83 454.791C291.183 499.862 158.451 510.483 83.1332 481.408C56.6342 471.178 30.856 457.046 15.9458 435.712C6.42842 422.095 1.88417 406.247 0.606667 390.422C-3.41746 340.302 24.2222 291.906 59.8462 251.953C95.4702 212.001 139.398 177.94 175.697 138.44C214.597 96.115 244.18 48.1719 272.349 0.0336914C302.635 27.3528 336.607 51.6911 373.372 72.3931C404.58 89.966 438.05 105.112 465.325 126.953C517.693 168.888 565.919 227.787 573.319 288.816C577.498 323.353 568.109 371.164 538.452 402.111C493.567 448.962 425.403 459.949 354.83 454.791Z" fill="#EBB371"/>
<path d="M195.727 421.245C197.36 421.573 198.647 421.058 199.486 420.129C244.363 406.832 289.221 393.692 330.649 416.009C343.114 425.537 350.478 437.795 348.945 454.011C348.908 454.338 348.917 454.65 348.963 454.939C347.037 474.978 337.201 493.097 320.31 507.627C316.624 508.087 314.416 512.964 318.522 515.141C319.078 515.43 319.599 515.633 320.137 515.882C321.141 517.849 323.741 519.23 326.515 517.935C340.084 520.26 349.492 508.282 355.752 493.214C373.664 464.092 374.723 429.516 374.613 396.392C386.603 368.191 420.704 354.223 450.816 341.371C477.835 329.83 504.325 316.533 518.815 292.928C521.626 288.356 513.514 284.29 510.694 288.871C491.34 320.388 448.307 331.866 413.258 349.51C445.907 318.094 480.983 287.77 474.796 242.395C474.103 237.322 464.704 237.26 465.398 242.395C471.393 286.405 436.973 316.58 404.598 347.98C411.852 327.138 411.369 304.298 419.07 283.416C420.895 278.469 411.834 276.354 410.018 281.278C400.072 308.238 404.388 338.991 386.33 363.587C385.481 364.742 385.435 365.873 385.864 366.841C377.597 373.762 370.826 381.885 366.373 391.897C366.145 392.264 365.908 392.622 365.689 392.997C363.654 382.907 360.542 373.005 356.418 363.415C352.859 347.645 348.297 332.311 343.378 317.891C342.338 314.832 341.216 311.773 340.048 308.707C337.082 279.991 349.027 253.577 360.333 227.007C376.009 221.427 389.688 212.656 399.351 200.577C402.773 196.293 394.624 192.274 391.23 196.519C384.505 204.939 375.215 211.65 364.731 216.449C372.943 196.254 379.595 175.794 377.871 153.984C377.46 148.849 368.07 148.81 368.472 153.984C370.352 177.682 362.294 199.804 353.096 221.739C352.704 222.262 352.476 222.855 352.366 223.456C343.543 244.361 333.925 265.141 331.041 286.99C305.537 229.363 269.712 169.895 296.759 108.967C298.894 104.129 289.824 102.038 287.698 106.837C258.78 171.986 300.062 235.855 325.293 296.276C330.083 307.77 334.272 319.452 337.894 331.258C330.713 321.558 322.391 312.452 312.937 304.149C295.052 288.449 274.037 277.728 251.49 268.036C249.418 250.806 242.136 235.356 230.11 221.31C226.569 217.182 218.421 221.185 221.988 225.368C232.026 237.081 238.842 249.683 241.479 263.783C213.338 251.915 183.809 237.432 176.208 209.317C174.849 204.284 165.778 206.414 167.147 211.455C180.241 259.85 245.604 268.496 285.936 294.427C313.266 311.992 333.834 336.041 346.125 362.916C348.707 375.143 350.697 387.465 351.974 399.848C352.832 408.213 353.361 416.633 353.425 425.045C353.251 426.114 353.115 427.191 352.987 428.283C349.757 422.618 345.249 417.608 339.82 413.161C339.655 412.115 339.016 411.101 337.73 410.359C335.403 409.025 333.04 407.808 330.658 406.692C309.461 393.606 279.941 386.325 255.687 381.183C237.556 345.624 208.712 314.949 171.217 292.952C166.216 290.025 161.517 296.978 166.472 299.889C200.362 319.771 226.587 347.231 244.135 378.787C243.87 378.733 243.596 378.678 243.341 378.624C187.368 367.176 115.007 351.913 99.6039 296.448C98.2078 291.414 89.1467 293.545 90.5428 298.586C102.031 339.927 147.355 363.672 191.922 375.541C206.129 379.326 226.733 382.525 248.387 386.825C248.433 386.911 248.478 386.989 248.515 387.074C249.838 389.728 252.949 389.618 255.039 388.175C266.892 390.64 278.874 393.489 290.152 396.977C265.058 395.549 238.988 400.972 215.017 407.901C209.222 409.579 203.255 411.382 197.159 413.2C173.361 404.835 150.813 394.253 128.959 382.673C123.803 379.942 119.077 386.895 124.205 389.611C143.495 399.833 163.333 409.158 184.038 417.047C143.815 428.517 99.6496 437.257 64.272 412.911C59.6 409.696 52.9113 415.353 57.6198 418.592C100.881 448.353 148.268 435.283 195.727 421.245Z" fill="#6B4624"/>
</svg>
